<svg xmlns="http://www.w3.org/2000/svg" width="100" height="100" viewBox="2 2 46 46"><path d="M25 5.22C14.092 5.22 5.22 14.093 5.22 25S14.093 44.78 25 44.78 44.78 35.907 44.78 25 35.907 5.22 25 5.22m0 2.76c9.416 0 17.02 7.604 17.02 17.02S34.416 42.02 25 42.02 7.98 34.416 7.98 25 15.584 7.98 25 7.98" style="color:#000;fill:#000;stroke-linecap:round;stroke-linejoin:round;-inkscape-stroke:none"/><path d="M24.526 34.885q-2.546 0-4.57-1.255-2.022-1.291-3.208-3.454-1.152-2.197-1.152-4.953 0-2.755 1.256-4.953 1.29-2.197 3.453-3.453 2.198-1.29 4.919-1.29t4.883 1.29q2.163 1.256 3.418 3.453 1.291 2.198 1.291 4.953h-1.36q0 2.756-1.186 4.953-1.151 2.163-3.175 3.454-2.023 1.255-4.569 1.255m.698-3.139q1.779 0 3.174-.837 1.395-.872 2.197-2.337.803-1.5.803-3.349 0-1.883-.803-3.348-.802-1.5-2.197-2.337-1.395-.872-3.174-.872-1.744 0-3.175.872-1.395.837-2.232 2.337-.802 1.465-.802 3.348 0 1.849.802 3.349.837 1.465 2.232 2.337 1.43.837 3.175.837m7.813 3.035q-.767 0-1.29-.489-.489-.523-.489-1.29v-5.337l.663-3.697 2.895 1.255v7.779q0 .767-.523 1.29-.489.489-1.256.489" aria-label="a" style="-inkscape-font-specification:&quot;Comfortaa Bold&quot;;stroke-width:110.535;stroke-linecap:round;stroke-linejoin:round"/></svg>