<svg xmlns="http://www.w3.org/2000/svg" width="100" height="100" viewBox="2 2 46 46"><path d="M25 5.22C14.092 5.22 5.22 14.093 5.22 25S14.093 44.78 25 44.78 44.78 35.907 44.78 25 35.907 5.22 25 5.22m0 2.76c9.416 0 17.02 7.604 17.02 17.02S34.416 42.02 25 42.02 7.98 34.416 7.98 25 15.584 7.98 25 7.98" style="color:#000;fill:#000;stroke-linecap:round;stroke-linejoin:round;-inkscape-stroke:none"/><path d="M25.864 34.359q-2.706 0-4.837-1.218-2.098-1.252-3.315-3.35-1.184-2.13-1.184-4.803 0-2.74 1.184-4.87 1.184-2.132 3.247-3.316 2.063-1.218 4.736-1.218 1.996 0 3.653.778 1.658.745 2.977 2.267.474.541.338 1.116t-.744 1.015q-.473.338-1.049.237-.575-.136-1.048-.61-1.658-1.758-4.127-1.758-1.725 0-3.045.812-1.319.778-2.063 2.198-.744 1.421-.744 3.35 0 1.826.744 3.247.778 1.42 2.131 2.266 1.353.812 3.146.812 1.184 0 2.063-.27.914-.305 1.658-.914.541-.44 1.116-.473.575-.068 1.015.304.575.474.643 1.082.068.576-.406 1.05-2.436 2.266-6.089 2.266" aria-label="c" style="-inkscape-font-specification:&quot;Comfortaa Bold&quot;;stroke-width:16.9137;stroke-linecap:round;stroke-linejoin:round"/></svg>