<svg xmlns="http://www.w3.org/2000/svg" width="100" height="100" viewBox="2 2 46 46"><path d="M25 5.22C14.092 5.22 5.22 14.093 5.22 25S14.093 44.78 25 44.78 44.78 35.907 44.78 25 35.907 5.22 25 5.22m0 2.76c9.416 0 17.02 7.604 17.02 17.02S34.416 42.02 25 42.02 7.98 34.416 7.98 25 15.584 7.98 25 7.98" style="stroke-linecap:round;stroke-linejoin:round"/><path d="M31.65 23.386c.046.351.079.71.086 1.085l1.589-1.085zm-12.94 3.1a8.5 8.5 0 0 1-.11-1.356c0-.612.06-1.19.16-1.744h-.936v3.1z" style="-inkscape-font-specification:&quot;Comfortaa Bold&quot;;stroke-width:122.801;stroke-linecap:round;stroke-linejoin:round"/><path d="M25.575 14.357q-3.061 0-5.426 1.394-2.363 1.357-3.72 3.798-1.317 2.404-1.317 5.581 0 3.14 1.395 5.58a10.4 10.4 0 0 0 3.914 3.798q2.519 1.356 5.735 1.356 1.784 0 3.72-.659 1.977-.658 3.294-1.705.66-.504.62-1.201-.039-.697-.697-1.279a1.65 1.65 0 0 0-1.202-.388q-.659 0-1.24.427-.775.582-2.054 1.046a7.5 7.5 0 0 1-2.44.427q-2.21 0-3.915-.969a7.1 7.1 0 0 1-2.674-2.636 7 7 0 0 1-.859-2.441h-.885v-3.1h.936a8 8 0 0 1 .654-2.053q.813-1.706 2.363-2.675 1.59-.969 3.798-.969 1.938 0 3.294.892 1.356.89 2.092 2.44c.349.716.574 1.507.688 2.365h1.676l-1.589 1.085a10 10 0 0 0-.087-1.085H18.76c-.1.555-.16 1.132-.16 1.744q.002.703.11 1.356h14.732q.774 0 1.278-.464.504-.504.504-1.241 0-3.061-1.162-5.386-1.124-2.364-3.294-3.682-2.17-1.356-5.193-1.356" style="-inkscape-font-specification:&quot;Comfortaa Bold&quot;;stroke-width:122.801;stroke-linecap:round;stroke-linejoin:round"/></svg>