<svg xmlns="http://www.w3.org/2000/svg" width="100" height="100" viewBox="2 2 46 46"><path d="M25 5.22C14.092 5.22 5.22 14.093 5.22 25S14.093 44.78 25 44.78 44.78 35.907 44.78 25 35.907 5.22 25 5.22m0 2.76c9.416 0 17.02 7.604 17.02 17.02S34.416 42.02 25 42.02 7.98 34.416 7.98 25 15.584 7.98 25 7.98" style="color:#000;fill:#000;stroke-linecap:round;stroke-linejoin:round;-inkscape-stroke:none"/><path d="M25.795 20.745v2.623h3.11q.642 0 1.037-.366.397-.366.397-.915 0-.609-.397-.975-.396-.366-1.036-.367Zm-3.111 2.623v-2.623h-1.312q-.64 0-1.037.367-.396.366-.396.975 0 .548.396.915.397.366 1.037.366z" style="-inkscape-font-specification:&quot;Comfortaa Bold&quot;;stroke-width:15.25;stroke-linecap:round;stroke-linejoin:round" transform="translate(-4.44 -4.493)scale(1.17318)"/><path d="M29.577 12.999q-2.044 0-3.6.914a6.3 6.3 0 0 0-2.44 2.502q-.853 1.616-.853 3.812v.518h3.111v-.823q0-1.251.457-2.166a3.65 3.65 0 0 1 1.342-1.433q.854-.519 1.983-.519.67 0 1.098-.397.457-.427.457-1.006 0-.61-.457-1.006-.428-.396-1.098-.396m-3.782 7.746h-3.111v2.623h3.111zm0 2.623h-3.111v11.895q0 .702.457 1.128.457.428 1.037.428.762 0 1.19-.428.427-.426.427-1.128z" style="-inkscape-font-specification:&quot;Comfortaa Bold&quot;;stroke-width:15.25;stroke-linecap:round;stroke-linejoin:round" transform="translate(-4.44 -4.493)scale(1.17318)"/></svg>