<svg xmlns="http://www.w3.org/2000/svg" width="100" height="100" viewBox="2 2 46 46"><path d="M25 5.22C14.092 5.22 5.22 14.093 5.22 25S14.093 44.78 25 44.78 44.78 35.907 44.78 25 35.907 5.22 25 5.22m-5.283 1.435q.818 0 1.301.52c.315.293.48.683.509 1.159A17 17 0 0 1 25 7.98c9.416 0 17.02 7.604 17.02 17.02S34.416 42.02 25 42.02 7.98 34.416 7.98 25a17 17 0 0 1 9.915-15.471V8.477q0-.818.484-1.301.52-.52 1.338-.521" style="stroke-linecap:round;stroke-linejoin:round"/><path d="m26.054 24.158-2.666 2.38 7.074 8.744q.482.594 1.19.632.742.075 1.337-.41.631-.52.67-1.189.074-.706-.41-1.3zm0 0-.537-.661-2.603 2.454.474.586z" style="-inkscape-font-specification:&quot;Comfortaa Bold&quot;;stroke-width:117.813;stroke-linecap:round;stroke-linejoin:round"/><path d="M21.538 23.604v4.585l1.85-1.652-.474-.586 2.603-2.454.537.661 6.824-6.09q.557-.52.594-1.189.038-.669-.483-1.227a1.64 1.64 0 0 0-1.19-.595q-.668-.038-1.226.483zm0 0-2.379 2.123 2.305 2.528.074-.066z" style="-inkscape-font-specification:&quot;Comfortaa Bold&quot;;stroke-width:117.813;stroke-linecap:round;stroke-linejoin:round"/><path d="M21.527 8.334a17 17 0 0 0-3.632 1.195v24.34q0 .818.484 1.338.52.484 1.338.484t1.301-.484q.52-.52.52-1.338v-5.68l-.074.066-2.305-2.528 2.38-2.123V8.477c0-.05-.01-.095-.012-.143" style="-inkscape-font-specification:&quot;Comfortaa Bold&quot;;stroke-width:117.813;stroke-linecap:round;stroke-linejoin:round"/><path d="M19.717 6.655q-.818 0-1.338.52-.484.484-.484 1.302v1.052a17 17 0 0 1 3.632-1.195c-.03-.476-.194-.866-.509-1.158q-.483-.52-1.3-.521" style="-inkscape-font-specification:&quot;Comfortaa Bold&quot;;stroke-width:117.813;stroke-linecap:round;stroke-linejoin:round"/></svg>