<svg xmlns="http://www.w3.org/2000/svg" width="100" height="100" viewBox="2 2 46 46"><path d="M25 5.22C14.092 5.22 5.22 14.093 5.22 25S14.093 44.78 25 44.78 44.78 35.907 44.78 25 35.907 5.22 25 5.22m0 2.76c9.416 0 17.02 7.604 17.02 17.02S34.416 42.02 25 42.02 7.98 34.416 7.98 25 15.584 7.98 25 7.98" style="color:#000;fill:#000;stroke-linecap:round;stroke-linejoin:round;-inkscape-stroke:none"/><path d="M35.048 33.059q-.665 0-1.12-.424-.423-.454-.423-1.12v-8.654q0-1.907-.938-2.815-.938-.938-2.451-.938-1.574 0-2.603 1.09-.998 1.089-.998 2.784h-2.512q0-1.967.847-3.45.847-1.513 2.36-2.36 1.544-.848 3.511-.848 1.725 0 3.056.757 1.332.756 2.058 2.239.757 1.453.757 3.54v8.656q0 .665-.424 1.12-.424.423-1.12.423m-20.184 0q-.666 0-1.12-.424-.424-.454-.424-1.12V18.05q0-.696.424-1.12.454-.423 1.12-.423.696 0 1.12.423.423.424.423 1.12v13.467q0 .665-.424 1.12-.423.423-1.12.423m10.107 0q-.666 0-1.12-.424-.423-.454-.423-1.12v-8.654q0-1.907-.938-2.815-.938-.938-2.452-.938-1.573 0-2.602 1.09-1.029 1.089-1.029 2.784H14.5q0-1.967.786-3.45.787-1.513 2.18-2.36 1.391-.848 3.177-.848 1.725 0 3.056.757 1.332.756 2.058 2.239.757 1.453.757 3.54v8.656q0 .665-.424 1.12-.424.423-1.12.423" aria-label="m" style="-inkscape-font-specification:&quot;Comfortaa Bold&quot;;stroke-width:20.1747;stroke-linecap:round;stroke-linejoin:round"/></svg>