<svg xmlns="http://www.w3.org/2000/svg" width="100" height="100" viewBox="2 2 46 46"><path d="M31.784 33.147q-.668 0-1.124-.425-.425-.456-.425-1.124v-7.471q0-1.731-.638-2.825-.637-1.093-1.73-1.61-1.064-.546-2.46-.546-1.276 0-2.309.516t-1.64 1.397q-.607.85-.607 1.974h-1.914q0-1.913.911-3.401.942-1.519 2.552-2.4 1.61-.88 3.614-.88 2.095 0 3.735.91 1.67.882 2.612 2.613.972 1.73.972 4.252v7.47q0 .669-.456 1.125-.425.425-1.093.425m-12.482 0q-.668 0-1.124-.425-.425-.456-.425-1.124V18.053q0-.699.425-1.124.456-.425 1.124-.425.698 0 1.123.425t.426 1.124v13.545q0 .668-.426 1.124-.425.425-1.123.425" aria-label="n" style="-inkscape-font-specification:&quot;Comfortaa Bold&quot;;stroke-width:96.2417;stroke-linecap:round;stroke-linejoin:round"/><path d="M25 5.22C14.092 5.22 5.22 14.093 5.22 25S14.093 44.78 25 44.78 44.78 35.907 44.78 25 35.907 5.22 25 5.22m0 2.76c9.416 0 17.02 7.604 17.02 17.02S34.416 42.02 25 42.02 7.98 34.416 7.98 25 15.584 7.98 25 7.98" style="color:#000;fill:#000;stroke-linecap:round;stroke-linejoin:round;-inkscape-stroke:none"/></svg>