<svg xmlns="http://www.w3.org/2000/svg" width="100" height="100" viewBox="2 2 46 46"><path d="M25 5.22C14.092 5.22 5.22 14.093 5.22 25S14.093 44.78 25 44.78 44.78 35.907 44.78 25 35.907 5.22 25 5.22m0 2.76c9.416 0 17.02 7.604 17.02 17.02S34.416 42.02 25 42.02 7.98 34.416 7.98 25 15.584 7.98 25 7.98" style="color:#000;fill:#000;stroke-linecap:round;stroke-linejoin:round;-inkscape-stroke:none"/><path d="M25.114 34.86q-2.85 0-5.032-1.23-2.182-1.268-3.449-3.45-1.232-2.216-1.232-5.066 0-2.886 1.232-5.068 1.267-2.217 3.449-3.448 2.181-1.267 5.032-1.267 2.815 0 4.996 1.267 2.182 1.231 3.414 3.448 1.267 2.182 1.267 5.068 0 2.85-1.232 5.067-1.232 2.181-3.413 3.448-2.182 1.232-5.032 1.232m0-3.166q1.83 0 3.237-.845 1.407-.844 2.182-2.322.809-1.478.809-3.413 0-1.936-.81-3.414-.774-1.513-2.181-2.357t-3.237-.845-3.238.845T19.66 21.7q-.81 1.478-.81 3.414 0 1.935.81 3.413t2.217 2.322 3.238.845" aria-label="o" style="-inkscape-font-specification:&quot;Comfortaa Bold&quot;;stroke-width:111.511;stroke-linecap:round;stroke-linejoin:round"/></svg>