<svg xmlns="http://www.w3.org/2000/svg" width="100" height="100" viewBox="2 2 46 46"><path d="M25 5.22C14.092 5.22 5.22 14.093 5.22 25S14.093 44.78 25 44.78 44.78 35.907 44.78 25 35.907 5.22 25 5.22m0 2.76c9.416 0 17.02 7.604 17.02 17.02S34.415 42.02 25 42.02c-1.895 0-3.714-.314-5.415-.882q-.086.541-.462.919-.489.525-1.293.525a1.76 1.76 0 0 1-1.295-.525q-.49-.49-.49-1.26v-1.316A16.99 16.99 0 0 1 7.981 25C7.98 15.584 15.584 7.98 25 7.98" style="stroke-linecap:round;stroke-linejoin:round"/><path d="M19.585 41.138a17 17 0 0 1-3.54-1.657v1.316q0 .77.49 1.26.524.525 1.295.525.804 0 1.293-.525.376-.377.462-.92" style="-inkscape-font-specification:&quot;Comfortaa Bold&quot;;stroke-width:17.4924;stroke-linecap:round;stroke-linejoin:round"/><path d="M19.585 41.138a2 2 0 0 0 .029-.34V31.35a9.3 9.3 0 0 0 2.938 2.344q1.75.84 3.814.84 2.553 0 4.583-1.26a9.1 9.1 0 0 0 3.184-3.463q1.19-2.205 1.19-4.968-.001-2.764-1.295-4.968a9.2 9.2 0 0 0-3.429-3.463q-2.169-1.295-4.933-1.295-2.73 0-4.898 1.295a9.2 9.2 0 0 0-3.429 3.463q-1.259 2.204-1.294 4.968V39.48a17 17 0 0 0 3.54 1.657m6.08-22.872q1.785 0 3.185.875 1.399.84 2.204 2.344.84 1.47.839 3.359 0 1.854-.84 3.358a6.26 6.26 0 0 1-2.203 2.344q-1.4.84-3.184.84-1.749 0-3.183-.84a6.26 6.26 0 0 1-2.205-2.344q-.805-1.504-.804-3.358 0-1.89.804-3.359.805-1.504 2.205-2.344 1.434-.875 3.183-.875" style="-inkscape-font-specification:&quot;Comfortaa Bold&quot;;stroke-width:17.4924;stroke-linecap:round;stroke-linejoin:round"/></svg>