<svg xmlns="http://www.w3.org/2000/svg" width="100" height="100" viewBox="2 2 46 46"><path d="M25 5.22C14.092 5.22 5.22 14.093 5.22 25S14.093 44.78 25 44.78 44.78 35.907 44.78 25 35.907 5.22 25 5.22m0 2.76c9.416 0 17.02 7.604 17.02 17.02S34.416 42.02 25 42.02 7.98 34.416 7.98 25 15.584 7.98 25 7.98" style="color:#000;fill:#000;stroke-linecap:round;stroke-linejoin:round;-inkscape-stroke:none"/><path d="M25.317 35.279q-2.515 0-4.672-.755-2.12-.79-3.306-1.977-.54-.575-.468-1.294.108-.755.72-1.222.718-.575 1.4-.467.72.072 1.223.611.61.683 1.94 1.294 1.366.575 3.02.575 2.084 0 3.163-.683 1.114-.683 1.15-1.761t-1.043-1.869q-1.042-.79-3.845-1.294-3.63-.719-5.284-2.156-1.617-1.438-1.617-3.523 0-1.833 1.078-3.019 1.078-1.222 2.768-1.797 1.689-.61 3.522-.61 2.372 0 4.205.754 1.833.755 2.911 2.085.503.575.467 1.222-.035.61-.61 1.042-.576.395-1.366.252t-1.33-.647q-.899-.863-1.94-1.186-1.043-.324-2.409-.324-1.581 0-2.696.54-1.078.538-1.078 1.58 0 .648.324 1.187.36.503 1.365.934 1.007.396 2.948.79 2.695.54 4.24 1.367 1.582.826 2.265 1.94.683 1.079.683 2.516 0 1.654-.899 2.983-.862 1.33-2.587 2.121-1.69.79-4.242.79" aria-label="s" style="-inkscape-font-specification:&quot;Comfortaa Bold&quot;;stroke-width:113.894;stroke-linecap:round;stroke-linejoin:round"/></svg>