<svg xmlns="http://www.w3.org/2000/svg" width="100" height="100" viewBox="2 2 46 46"><path d="M25 5.22C14.092 5.22 5.22 14.093 5.22 25S14.093 44.78 25 44.78 44.78 35.907 44.78 25 35.907 5.22 25 5.22m0 2.76c9.416 0 17.02 7.604 17.02 17.02S34.416 42.02 25 42.02 7.98 34.416 7.98 25 15.584 7.98 25 7.98" style="stroke-linecap:round;stroke-linejoin:round"/><path d="M25.59 21.32h-3.38v8.346q0 1.86.777 3.346a6.2 6.2 0 0 0 2.13 2.366q1.351.844 3.041.844h.608q.878 0 1.419-.473.575-.473.575-1.217 0-.742-.44-1.216a1.28 1.28 0 0 0-1.013-.473h-1.149q-1.081 0-1.825-.912-.743-.913-.744-2.265z" style="-inkscape-font-specification:&quot;Comfortaa Bold&quot;;stroke-width:107.08;stroke-linecap:round;stroke-linejoin:round"/><path d="M25.59 18.414v2.907h2.872q.71 0 1.149-.406.44-.405.44-1.014 0-.675-.44-1.081t-1.15-.406zm0 0h-3.38v2.907h3.38zm-3.38 2.906v-2.906h-1.554q-.71 0-1.149.406-.44.405-.44 1.081 0 .608.44 1.014t1.15.406zm1.69-9.46q-.742 0-1.216.472t-.474 1.217v4.865h3.38V13.55q0-.744-.473-1.217-.474-.473-1.217-.473" style="-inkscape-font-specification:&quot;Comfortaa Bold&quot;;stroke-width:107.08;stroke-linecap:round;stroke-linejoin:round"/></svg>