<svg xmlns="http://www.w3.org/2000/svg" width="100" height="100" viewBox="2 2 46 46"><path d="M25.219 34.828q-1.039 0-1.608-1.106l-7.103-14.975q-.268-.57-.067-1.105.235-.57.871-.871.57-.302 1.14-.1.602.2.904.77l6.633 14.305h-1.608l6.567-14.305q.301-.57.904-.77.637-.202 1.273.1.603.268.804.837.201.57-.067 1.14L26.76 33.721q-.503 1.106-1.541 1.106" aria-label="v" style="-inkscape-font-specification:&quot;Comfortaa Bold&quot;;stroke-width:106.163;stroke-linecap:round;stroke-linejoin:round"/><path d="M25 5.22C14.092 5.22 5.22 14.093 5.22 25S14.093 44.78 25 44.78 44.78 35.907 44.78 25 35.907 5.22 25 5.22m0 2.76c9.416 0 17.02 7.604 17.02 17.02S34.416 42.02 25 42.02 7.98 34.416 7.98 25 15.584 7.98 25 7.98" style="color:#000;fill:#000;stroke-linecap:round;stroke-linejoin:round;-inkscape-stroke:none"/></svg>