<svg xmlns="http://www.w3.org/2000/svg" xml:space="preserve" width="48mm" height="48mm" viewBox="0 0 48 48"><g style="font-family:none;mix-blend-mode:normal;fill:#878680;fill-rule:nonzero;stroke:none;stroke-width:1;stroke-linecap:butt;stroke-linejoin:miter;stroke-miterlimit:10;stroke-dasharray:none;stroke-dashoffset:0;fill-opacity:1"><path d="M19 20c0 .6-.4 1-1 1H6c-.6 0-1-.4-1-1V4c0-.6.4-1 1-1h7.6L19 8.4Z" opacity=".3" style="fill:#878680;fill-opacity:1" transform="translate(.324 .289)scale(1.97742)"/><path d="M8 12h8v2H8Zm0 4h8v2H8Z" style="fill:#878680;fill-opacity:1" transform="translate(.324 .289)scale(1.97742)"/><path d="M18 22H6c-1.1 0-2-.9-2-2V4c0-1.1.9-2 2-2h8l6 6v12c0 1.1-.9 2-2 2M6 4v16h12V8.8L13.2 4Z" style="fill:#878680;fill-opacity:1" transform="translate(.324 .289)scale(1.97742)"/><path d="M18.5 9H13V3.5Z" style="fill:#878680;fill-opacity:1" transform="translate(.324 .289)scale(1.97742)"/></g><path fill="#dbdbdb" d="M39.065 21.956c1.154-1.302 1.933-3.112 1.721-4.913-1.663.062-3.676 1.028-4.87 2.33-1.07 1.154-2.005 2.992-1.755 4.762 1.856.134 3.749-.879 4.904-2.179m4.163 11.44c-.041-3.9 3.416-5.768 3.57-5.862-1.942-2.644-4.969-3.007-6.045-3.048-2.574-.244-5.024 1.41-6.331 1.41-1.303 0-3.32-1.375-5.455-1.34a8.19 8.19 0 0 0-6.84 3.86c-2.915 4.708-.746 11.685 2.096 15.507 1.39 1.868 3.045 3.97 5.218 3.892 2.095-.077 2.886-1.26 5.417-1.26 2.533 0 3.243 1.26 5.458 1.221 2.253-.038 3.68-1.903 5.059-3.778 1.595-2.17 2.251-4.272 2.29-4.377-.05-.023-4.392-1.572-4.437-6.226" style="stroke-width:.030053;fill:#ececec;fill-opacity:1"/></svg>