<svg xmlns="http://www.w3.org/2000/svg" xml:space="preserve" width="48mm" height="48mm" viewBox="0 0 48 48"><g style="font-family:none;mix-blend-mode:normal;fill:#878680;fill-rule:nonzero;stroke:none;stroke-width:1;stroke-linecap:butt;stroke-linejoin:miter;stroke-miterlimit:10;stroke-dasharray:none;stroke-dashoffset:0;fill-opacity:1"><path d="M19 20c0 .6-.4 1-1 1H6c-.6 0-1-.4-1-1V4c0-.6.4-1 1-1h7.6L19 8.4Z" opacity=".3" style="fill:#878680;fill-opacity:1" transform="translate(.324 .289)scale(1.97742)"/><path d="M8 12h8v2H8Zm0 4h8v2H8Z" style="fill:#878680;fill-opacity:1" transform="translate(.324 .289)scale(1.97742)"/><path d="M18 22H6c-1.1 0-2-.9-2-2V4c0-1.1.9-2 2-2h8l6 6v12c0 1.1-.9 2-2 2M6 4v16h12V8.8L13.2 4Z" style="fill:#878680;fill-opacity:1" transform="translate(.324 .289)scale(1.97742)"/><path d="M18.5 9H13V3.5Z" style="fill:#878680;fill-opacity:1" transform="translate(.324 .289)scale(1.97742)"/></g><path fill="#66c3fa" d="M34.42 19.242a1.35 1.35 0 0 0-.937.386l-.013.01-8.78 5.07 8.757 8.75v.006l10.525 10.518 2.006-3.612-7.234-17.358-3.376-3.375a1.34 1.34 0 0 0-.95-.395Z"/><path fill="#215896" d="m24.71 24.687-5.07 8.766-.01.014a1.327 1.327 0 0 0 .003 1.878l.005.005 4.203 4.203 16.441 6.463L44 43.953l-.1-.1-.026.002L33.566 33.54h-.012z"/><path fill="#235997" d="m24.688 24.691 8.959 8.96h.013l10.31 10.315 3.925-.747.005-11.604-4.144-4.058a6.7 6.7 0 0 0-3.703-1.65l.002-.044-15.365-1.17Z"/><path fill="#58b6f0" d="m24.7 24.702 8.963 8.956v.013L43.98 43.98l-.75 3.921H31.616l-4.06-4.143a6.66 6.66 0 0 1-1.649-3.703l-.046.004z"/></svg>