<svg xmlns="http://www.w3.org/2000/svg" xml:space="preserve" width="48mm" height="48mm" viewBox="0 0 48 48"><g style="font-family:none;mix-blend-mode:normal;fill:#878680;fill-rule:nonzero;stroke:none;stroke-width:1;stroke-linecap:butt;stroke-linejoin:miter;stroke-miterlimit:10;stroke-dasharray:none;stroke-dashoffset:0;fill-opacity:1"><path d="M6 3c-.6 0-1 .4-1 1v16c0 .6.4 1 1 1h3.731v-9.762a1.473 1.473 0 0 1 1.473-1.473H19V8.4L13.6 3z" style="opacity:.3" transform="translate(.324 .289)scale(1.97742)"/><path d="M19.567 27.972v-3.954h-3.423v3.954zm0 7.91v-3.955h-3.423v3.955z"/><path d="M12.189 4.244a3.966 3.966 0 0 0-3.955 3.954v31.639a3.967 3.967 0 0 0 3.955 3.955h7.378v-3.955h-7.378V8.198h14.237l9.492 9.492v1.908h3.955v-3.49L28.008 4.244Z"/><path d="M18.5 9H13V3.5Z" style="fill:#878680;fill-opacity:1" transform="translate(.324 .289)scale(1.97742)"/></g><path d="M31.426 21.06h-8.579a1.79 1.79 0 0 0-1.787 1.787v8.58a1.79 1.79 0 0 0 1.787 1.786h8.58a1.79 1.79 0 0 0 1.786-1.787v-8.579a1.79 1.79 0 0 0-1.787-1.787m13.583 0H36.43a1.79 1.79 0 0 0-1.787 1.787v8.58a1.79 1.79 0 0 0 1.787 1.786h8.58a1.79 1.79 0 0 0 1.787-1.787v-8.579a1.79 1.79 0 0 0-1.788-1.787M31.426 34.643h-8.579a1.79 1.79 0 0 0-1.787 1.787v8.58a1.79 1.79 0 0 0 1.787 1.787h8.58a1.79 1.79 0 0 0 1.786-1.788V36.43a1.79 1.79 0 0 0-1.787-1.787m13.583 0H36.43a1.79 1.79 0 0 0-1.787 1.787v8.58a1.79 1.79 0 0 0 1.787 1.787h8.58a1.79 1.79 0 0 0 1.787-1.788V36.43a1.79 1.79 0 0 0-1.788-1.787" style="font-family:none;mix-blend-mode:normal;fill:#21a1e1;fill-rule:nonzero;stroke:none;stroke-width:.714904;stroke-linecap:butt;stroke-linejoin:miter;stroke-miterlimit:10;stroke-dasharray:none;stroke-dashoffset:0"/></svg>