<svg xmlns="http://www.w3.org/2000/svg" xml:space="preserve" width="48mm" height="48mm" viewBox="0 0 48 48"><g style="font-family:none;mix-blend-mode:normal;fill:#878680;fill-rule:nonzero;stroke:none;stroke-width:1;stroke-linecap:butt;stroke-linejoin:miter;stroke-miterlimit:10;stroke-dasharray:none;stroke-dashoffset:0;fill-opacity:1"><path d="M12.188 6.221c-1.186 0-1.977.791-1.977 1.977v31.64c0 1.186.791 1.977 1.977 1.977h7.6V19.91h18.107V16.9L27.217 6.22Z" style="opacity:.3"/><path d="M19.787 35.883v-3.955h-3.644v3.955zm0-7.91v-3.955h-3.644v3.955Z"/><path d="M12.188 4.244a3.966 3.966 0 0 0-3.954 3.954v31.64a3.966 3.966 0 0 0 3.954 3.954h7.6v-3.955h-7.6V8.198h14.238l9.492 9.492v2.22h3.955v-3.801L28.008 4.244Z"/><path d="M18.5 9H13V3.5Z" style="fill:#878680;fill-opacity:1" transform="translate(.324 .289)scale(1.97742)"/></g><path d="M47.83 20.201H20.097v27.752h27.735zm-8.837 6.873c1.874 0 3.216.65 4.18 2.355l-2.292 1.468c-.504-.901-1.049-1.258-1.894-1.258-.86 0-1.405.545-1.405 1.258 0 .881.545 1.237 1.81 1.79l.734.314c2.502 1.07 3.907 2.167 3.907 4.627 0 2.642-2.083 4.096-4.872 4.096-2.733 0-4.5-1.3-5.36-3.005l2.397-1.384c.629 1.027 1.453 1.79 2.9 1.79 1.217 0 2-.61 2-1.455 0-1.006-.797-1.363-2.146-1.957l-.734-.315c-2.125-.901-3.53-2.04-3.53-4.438 0-2.209 1.684-3.886 4.305-3.886m-9.736.168h2.942v10.044c0 3.047-1.789 4.438-4.396 4.438-2.356 0-3.718-1.216-4.417-2.69l2.397-1.448c.461.818.88 1.51 1.894 1.51.965 0 1.58-.377 1.58-1.852z" style="fill:#ddb848;stroke-width:.0349485"/></svg>