<svg xmlns="http://www.w3.org/2000/svg" xml:space="preserve" width="48mm" height="48mm" viewBox="0 0 48 48"><g style="font-family:none;mix-blend-mode:normal;fill:#878680;fill-rule:nonzero;stroke:none;stroke-width:1;stroke-linecap:butt;stroke-linejoin:miter;stroke-miterlimit:10;stroke-dasharray:none;stroke-dashoffset:0;fill-opacity:1"><path d="M12.188 6.221c-1.186 0-1.977.791-1.977 1.977v31.64c0 1.186.791 1.977 1.977 1.977h7.6V19.91h18.107V16.9L27.217 6.22Z" style="opacity:.3"/><path d="M19.787 35.883v-3.955h-3.644v3.955zm0-7.91v-3.955h-3.644v3.955Z"/><path d="M12.188 4.244a3.966 3.966 0 0 0-3.954 3.954v31.64a3.966 3.966 0 0 0 3.954 3.954h7.6v-3.955h-7.6V8.198h14.238l9.492 9.492v2.22h3.955v-3.801L28.008 4.244Z"/><path d="M18.5 9H13V3.5Z" style="fill:#878680;fill-opacity:1" transform="translate(.324 .289)scale(1.97742)"/></g><path d="M47.939 20.305h-27.71v27.71h27.71zm-8.564 6.556c.477.014.95.06 1.233.13a4.05 4.05 0 0 1 2.039 1.174c.3.32.746.905.78 1.046.012.04-1.407.992-2.265 1.525-.031.02-.156-.114-.294-.32-.421-.611-.86-.875-1.533-.921-.988-.068-1.624.45-1.619 1.313-.009.213.039.424.139.611.217.45.622.72 1.888 1.268 2.335 1.005 3.333 1.667 3.954 2.608.693 1.05.849 2.727.377 3.974-.516 1.356-1.8 2.277-3.606 2.581-.558.1-1.882.084-2.483-.024-1.31-.234-2.55-.88-3.317-1.73-.3-.33-.885-1.195-.849-1.256q.141-.108.3-.191c.146-.083.693-.4 1.21-.7l.938-.543.197.29c.274.419.873.993 1.236 1.185 1.04.548 2.468.471 3.171-.16a1.2 1.2 0 0 0 .426-.978c0-.378-.048-.544-.245-.83-.253-.36-.77-.665-2.24-1.303-1.681-.724-2.405-1.174-3.068-1.888a4.3 4.3 0 0 1-.895-1.63c-.124-.46-.155-1.615-.057-2.08.346-1.625 1.572-2.757 3.342-3.094.288-.054.765-.071 1.241-.057m-10.92.331 4.835.016.016 1.33.01 1.336h-3.382v11.601h-3.001V29.874h-3.379v-1.31c0-.725.015-1.331.036-1.345.016-.021 1.736-.032 4.865-.027" style="fill:#3aabe6;stroke-width:.0318353"/></svg>