<svg xmlns="http://www.w3.org/2000/svg" xml:space="preserve" width="48mm" height="48mm" viewBox="0 0 48 48"><g style="font-family:none;mix-blend-mode:normal;fill:#878680;fill-rule:nonzero;stroke:none;stroke-width:1;stroke-linecap:butt;stroke-linejoin:miter;stroke-miterlimit:10;stroke-dasharray:none;stroke-dashoffset:0;fill-opacity:1"><path d="M19 20c0 .6-.4 1-1 1H6c-.6 0-1-.4-1-1V4c0-.6.4-1 1-1h7.6L19 8.4Z" opacity=".3" style="fill:#878680;fill-opacity:1" transform="translate(.324 .289)scale(1.97742)"/><path d="M8 12h8v2H8Zm0 4h8v2H8Z" style="fill:#878680;fill-opacity:1" transform="translate(.324 .289)scale(1.97742)"/><path d="M18 22H6c-1.1 0-2-.9-2-2V4c0-1.1.9-2 2-2h8l6 6v12c0 1.1-.9 2-2 2M6 4v16h12V8.8L13.2 4Z" style="fill:#878680;fill-opacity:1" transform="translate(.324 .289)scale(1.97742)"/><path d="M18.5 9H13V3.5Z" style="fill:#878680;fill-opacity:1" transform="translate(.324 .289)scale(1.97742)"/></g><path fill="#1775f2" d="M19.881 33.571a14.048 14.048 0 1 0 28.095 0 14.048 14.048 0 1 0-28.095 0"/><path fill="#fff" d="m34.1 25.969.52-.901a1.16 1.16 0 0 1 1.59-.43c.558.32.746 1.038.427 1.6l-4.987 8.689h3.607c1.169 0 1.825 1.382 1.317 2.34H26.001a1.164 1.164 0 0 1-1.163-1.17c0-.648.52-1.17 1.163-1.17h2.964l3.796-6.619-1.185-2.07a1.177 1.177 0 0 1 .427-1.6 1.16 1.16 0 0 1 1.59.43zM29.616 38.47l-1.117 1.95a1.16 1.16 0 0 1-1.59.43 1.174 1.174 0 0 1-.428-1.6l.832-1.445c.935-.292 1.699-.069 2.303.665m9.627-3.539h3.026c.645 0 1.163.523 1.163 1.17a1.164 1.164 0 0 1-1.163 1.17h-1.681l1.134 1.98c.32.561.131 1.273-.427 1.6a1.16 1.16 0 0 1-1.59-.43c-1.91-3.333-3.346-5.828-4.298-7.49-.975-1.693-.28-3.39.41-3.965.765 1.32 1.904 3.31 3.426 5.965"/></svg>