<svg xmlns="http://www.w3.org/2000/svg" xml:space="preserve" width="48mm" height="48mm" viewBox="0 0 48 48"><g style="font-family:none;mix-blend-mode:normal;fill:#878680;fill-rule:nonzero;stroke:none;stroke-width:1;stroke-linecap:butt;stroke-linejoin:miter;stroke-miterlimit:10;stroke-dasharray:none;stroke-dashoffset:0;fill-opacity:1"><path d="M6 3c-.6 0-1 .4-1 1v16c0 .6.4 1 1 1h3.098v-7.735H19V8.4L13.6 3z" style="opacity:.3" transform="translate(.324 .289)scale(1.97742)"/><path d="M16.144 24.018v3.954h2.172V26.52h13.647v-2.501Zm2.172 11.864v-3.955h-2.172v3.955z"/><path d="M12.189 4.244a3.966 3.966 0 0 0-3.955 3.954v31.639a3.967 3.967 0 0 0 3.955 3.955h6.127v-3.955h-6.127V8.198h14.237l9.492 9.492v8.83h3.955V16.107L28.008 4.244Z"/><path d="M18.5 9H13V3.5Z" style="fill:#878680;fill-opacity:1" transform="translate(.324 .289)scale(1.97742)"/></g><g fill="#e09b2e"><path d="M19.272 27.585h6.096v4.065h-6.096Zm8.128 0h12.193v4.065H27.4Zm0 12.193h12.193v4.065H27.4Zm14.225 0h2.032v4.065h-2.032Zm-16.257 0-3.048 4.065h-3.048V31.65h4.064v8.128zm14.225-8.128h-6.096L27.4 39.778h6.097z"/><path d="M33.497 39.778H27.4l-6.096 8.129M33.497 31.65h6.096l6.097-8.129m2.032 4.064v16.258h-4.065V31.65h-2.032l3.048-4.065z"/></g></svg>