<svg xmlns="http://www.w3.org/2000/svg" xml:space="preserve" width="48mm" height="48mm" viewBox="0 0 48 48"><g style="font-family:none;mix-blend-mode:normal;fill:#786746;fill-opacity:1;fill-rule:nonzero;stroke:none;stroke-width:1;stroke-linecap:butt;stroke-linejoin:miter;stroke-miterlimit:10;stroke-dasharray:none;stroke-dashoffset:0"><path d="M4 8v11c0 .6.4 1 1 1h14c.6 0 1-.4 1-1V8Z" opacity=".3" style="fill:#786746;fill-opacity:1" transform="translate(-2.307 -2.128)scale(2.19369)"/><path d="M19 21H5c-1.1 0-2-.9-2-2V7c0-.2 0-.4.1-.5l1.8-3c.2-.3.5-.5.9-.5h12.5c.4 0 .7.2.9.5l1.8 3V19c0 1.1-.9 2-2 2M5 7.3V19h14V7.3L17.7 5H6.3Z" style="fill:#786746;fill-opacity:1" transform="translate(-2.307 -2.128)scale(2.19369)"/><path d="M4 7h16v2H4Zm5 4h6v2H9Z" style="fill:#786746;fill-opacity:1" transform="translate(-2.307 -2.128)scale(2.19369)"/></g><path fill="#74b8c4" d="M46.976 24.19c-1.163-2.115-3.278-2.82-4.759-2.82-1.868-.07-3.349.987-3.031 1.693.07.105.423.88.634 1.163.282.423.881.106 1.058 0 .599-.282 1.163-.423 1.868-.282.705.07 1.516.458 2.115 1.586 1.34 2.644-2.926 8.214-8.32 4.336-5.393-3.877-10.61-2.538-12.937-1.833-2.362.776-3.455 1.516-2.538 3.35 1.304 2.396.88 1.691 2.115 3.7 2.01 3.174 6.275-1.48 6.275-1.48-3.244 4.689-5.923 3.596-6.98 1.939-.952-1.48-1.692-3.208-1.692-3.208-8.038 2.856-5.888 15.406-5.888 15.406h4.054c1.058-4.619 4.689-4.442 5.324 0h3.031c2.75-9.025 9.624 0 9.624 0h3.984c-1.128-6.205 2.22-8.144 4.336-11.74 1.939-3.49 3.948-7.967 1.727-11.81M36.647 36.07c-2.115-.704-1.34-2.82-1.34-2.82s1.87.635 4.337 1.41c-.176.706-1.48 1.94-2.997 1.41" style="stroke-width:.0344266"/></svg>