<svg xmlns="http://www.w3.org/2000/svg" xml:space="preserve" width="48mm" height="48mm" viewBox="0 0 48 48"><path fill="#cf554d" d="M19.123 45.782h26.658v2.242H19.123Zm26.658-22.417H22.455c-.613 0-1.11.502-1.11 1.121v14.571c0 2.476 1.989 4.484 4.443 4.484h11.107c2.454 0 4.443-2.008 4.443-4.484v-4.483h4.443a2.23 2.23 0 0 0 2.222-2.242v-6.725a2.23 2.23 0 0 0-2.222-2.242m0 8.967h-4.443v-6.725h4.443z" style="stroke-width:1.11577"/><g style="font-family:none;mix-blend-mode:normal;fill:#786746;fill-opacity:1;fill-rule:nonzero;stroke:none;stroke-width:1;stroke-linecap:butt;stroke-linejoin:miter;stroke-miterlimit:10;stroke-dasharray:none;stroke-dashoffset:0"><path d="M6.468 15.421v24.131c0 1.316.877 2.194 2.193 2.194h12.552a4.9 4.9 0 0 1-.354-1.823v-15.78a1.21 1.21 0 0 1 1.203-1.215h8.447v-.317h11.058v-7.19z" style="opacity:.3"/><path d="M10.416 4.453c-.877 0-1.535.439-1.974 1.097l-3.949 6.581c-.22.22-.219.658-.219 1.097v26.324a4.4 4.4 0 0 0 4.387 4.387h14.306a4.86 4.86 0 0 1-2.108-4.016v-.37H8.661V13.885l2.852-5.046h25.008l2.852 5.046v8.725h4.388V12.13l-3.949-6.58c-.439-.658-1.097-1.097-1.975-1.097Z"/><path d="M6.468 13.228v4.387h35.099v-4.387zm10.968 8.775v4.387h3.423v-2.248c0-.67.539-1.214 1.203-1.214h8.447v-.317h.09v-.608z"/></g></svg>