<svg xmlns="http://www.w3.org/2000/svg" width="100" height="100" viewBox="0 0 256 256"><g fill="#a4a39f" stroke-miterlimit="10" font-family="none" font-size="none" font-weight="none" style="mix-blend-mode:normal" text-anchor="none"><path d="M42.667 85.333v117.334c0 6.4 4.266 10.666 10.666 10.666h149.334c6.4 0 10.666-4.266 10.666-10.666V85.333z" opacity=".3"/><path d="M202.667 224H53.333C41.6 224 32 214.4 32 202.667v-128c0-2.134 0-4.267 1.067-5.334l19.2-32C54.4 34.133 57.6 32 61.867 32H195.2c4.267 0 7.467 2.133 9.6 5.333l19.2 32v133.334C224 214.4 214.4 224 202.667 224M53.333 77.867v124.8h149.334v-124.8L188.8 53.333H67.2z"/><path d="M42.667 74.667h170.666V96H42.667zM96 117.333h64v21.334H96z"/></g></svg>