<svg xmlns="http://www.w3.org/2000/svg" xml:space="preserve" width="48mm" height="48mm" viewBox="0 0 48 48"><g style="font-family:none;mix-blend-mode:normal;fill:#786746;fill-opacity:1;fill-rule:nonzero;stroke:none;stroke-width:1;stroke-linecap:butt;stroke-linejoin:miter;stroke-miterlimit:10;stroke-dasharray:none;stroke-dashoffset:0"><path d="M4 8v11c0 .6.4 1 1 1h14c.6 0 1-.4 1-1V8Z" opacity=".3" style="fill:#786746;fill-opacity:1" transform="translate(-2.307 -2.128)scale(2.19369)"/><path d="M19 21H5c-1.1 0-2-.9-2-2V7c0-.2 0-.4.1-.5l1.8-3c.2-.3.5-.5.9-.5h12.5c.4 0 .7.2.9.5l1.8 3V19c0 1.1-.9 2-2 2M5 7.3V19h14V7.3L17.7 5H6.3Z" style="fill:#786746;fill-opacity:1" transform="translate(-2.307 -2.128)scale(2.19369)"/><path d="M4 7h16v2H4Zm5 4h6v2H9Z" style="fill:#786746;fill-opacity:1" transform="translate(-2.307 -2.128)scale(2.19369)"/></g><path fill="#da5f4f" d="M46.884 43.863h-1.487l-8.304-23.02a2.03 2.03 0 0 0-1.926-1.377h-2.996a2.03 2.03 0 0 0-1.925 1.378l-8.304 23.019h-1.488a1.017 1.017 0 0 0-1.016 1.016v2.033a1.017 1.017 0 0 0 1.016 1.017h8.133a1.017 1.017 0 0 0 1.016-1.017V44.88a1.017 1.017 0 0 0-1.016-1.016h-1.244l1.48-4.066h9.693l1.48 4.066h-1.244a1.017 1.017 0 0 0-1.016 1.016v2.033a1.017 1.017 0 0 0 1.016 1.017h8.132a1.017 1.017 0 0 0 1.017-1.017V44.88a1.017 1.017 0 0 0-1.017-1.016m-16.21-9.15 2.995-8.226 2.996 8.227z" style="fill:#c8565c;fill-opacity:1;stroke-width:.031767"/></svg>