<svg xmlns="http://www.w3.org/2000/svg" xml:space="preserve" width="48mm" height="48mm" viewBox="0 0 48 48"><g style="font-family:none;mix-blend-mode:normal;fill:#786746;fill-opacity:1;fill-rule:nonzero;stroke:none;stroke-width:1;stroke-linecap:butt;stroke-linejoin:miter;stroke-miterlimit:10;stroke-dasharray:none;stroke-dashoffset:0"><path d="M4 8v11c0 .6.4 1 1 1h14c.6 0 1-.4 1-1V8Z" opacity=".3" style="fill:#786746;fill-opacity:1" transform="translate(-2.307 -2.128)scale(2.19369)"/><path d="M19 21H5c-1.1 0-2-.9-2-2V7c0-.2 0-.4.1-.5l1.8-3c.2-.3.5-.5.9-.5h12.5c.4 0 .7.2.9.5l1.8 3V19c0 1.1-.9 2-2 2M5 7.3V19h14V7.3L17.7 5H6.3Z" style="fill:#786746;fill-opacity:1" transform="translate(-2.307 -2.128)scale(2.19369)"/><path d="M4 7h16v2H4Zm5 4h6v2H9Z" style="fill:#786746;fill-opacity:1" transform="translate(-2.307 -2.128)scale(2.19369)"/></g><path fill="#29b6f6" d="M47.895 24.035v18.7c0 .921-.573 1.741-1.436 2.046l-6.398 3.003.58-7.87V26.856l-.58-7.87 6.398 3.002a2.16 2.16 0 0 1 1.436 2.046"/><path fill="#0277bd" d="M22.507 40.563 40.64 26.857v-6.998c0-.87-1.075-1.275-1.65-.624l-19.634 17.95a1.45 1.45 0 0 0 .078 2.2s.96.893 1.308 1.141c.533.381 1.235.425 1.764.037"/><path fill="#0288d1" d="M22.507 26.207 40.64 39.913v6.998c0 .87-1.075 1.275-1.65.624l-19.634-17.95a1.45 1.45 0 0 1 .078-2.2s.96-.893 1.308-1.141c.533-.381 1.235-.425 1.764-.037"/></svg>