<svg xmlns="http://www.w3.org/2000/svg" width="100" height="100" viewBox="0 0 256 256"><g fill="#7a7562" stroke-miterlimit="10" font-family="none" font-size="none" font-weight="none" style="mix-blend-mode:normal" text-anchor="none"><path d="M192 224H64c-6.4 0-10.667-4.267-10.667-10.667V106.667C53.333 100.267 57.6 96 64 96h128c6.4 0 10.667 4.267 10.667 10.667v106.666c0 6.4-4.267 10.667-10.667 10.667" opacity=".3"/><path d="M149.333 160c0 11.733-9.6 21.333-21.333 21.333s-21.333-9.6-21.333-21.333 9.6-21.333 21.333-21.333 21.333 9.6 21.333 21.333M192 96h-21.333V74.667C170.667 51.2 151.467 32 128 32S85.333 51.2 85.333 74.667V96H64V74.667c0-36.267 27.733-64 64-64s64 27.733 64 64z"/><path d="M192 234.667H64c-11.733 0-21.333-9.6-21.333-21.334V106.667c0-11.734 9.6-21.334 21.333-21.334h128c11.733 0 21.333 9.6 21.333 21.334v106.666c0 11.734-9.6 21.334-21.333 21.334m-128-128v106.666h128V106.667z"/></g></svg>