<svg xmlns="http://www.w3.org/2000/svg" xml:space="preserve" width="48mm" height="48mm" viewBox="0 0 48 48"><g style="font-family:none;mix-blend-mode:normal;fill:#796948;fill-rule:nonzero;stroke:none;stroke-width:1;stroke-linecap:butt;stroke-linejoin:miter;stroke-miterlimit:10;stroke-dasharray:none;stroke-dashoffset:0;fill-opacity:1"><path d="M19.124 41.837V23.062l8.42-4.862H10.39c-1.182 0-1.97.788-1.97 1.97v19.697c0 1.182.788 1.97 1.97 1.97z" style="opacity:.3"/><path d="M22.207 2.442c-6.697 0-11.818 5.121-11.818 11.819V18.2h3.94v-3.94c0-4.333 3.545-7.878 7.878-7.878s7.88 3.545 7.88 7.879v2.471l3.939-2.274v-.197c0-6.698-5.121-11.82-11.819-11.82"/><path d="M19.124 43.807v-3.94h-8.735V20.17h13.743l6.825-3.94H10.389a3.95 3.95 0 0 0-3.94 3.94v19.697a3.95 3.95 0 0 0 3.94 3.94z"/></g><g fill="#a9cd6f" stroke-miterlimit="10" font-family="none" font-size="none" font-weight="none" style="mix-blend-mode:normal" text-anchor="none"><path d="M34.16 47.603c-.424 0-.843-.11-1.214-.324l-3.865-2.29c-.578-.322-.296-.436-.106-.502.77-.27.926-.33 1.748-.797.086-.05.199-.032.287.02l2.97 1.762c.107.059.26.059.358 0l11.578-6.683a.37.37 0 0 0 .177-.313v-13.36a.37.37 0 0 0-.179-.318L34.341 18.12a.36.36 0 0 0-.356 0l-11.571 6.677a.37.37 0 0 0-.184.316v13.36c0 .128.07.25.18.31l3.17 1.831c1.722.861 2.774-.153 2.774-1.173V26.255a.33.33 0 0 1 .337-.333h1.466a.33.33 0 0 1 .333.333v13.193c0 2.295-1.251 3.614-3.428 3.614-.67 0-1.197 0-2.67-.724l-3.037-1.75a2.45 2.45 0 0 1-1.215-2.114v-13.36c0-.87.464-1.682 1.214-2.11l11.59-6.687a2.54 2.54 0 0 1 2.436 0l11.575 6.69a2.44 2.44 0 0 1 1.214 2.11v13.36a2.45 2.45 0 0 1-1.214 2.11l-11.576 6.686a2.43 2.43 0 0 1-1.22.324"/><path d="M37.736 38.397c-5.065 0-6.128-2.326-6.128-4.276a.333.333 0 0 1 .336-.334h1.496a.335.335 0 0 1 .33.284c.226 1.524.899 2.292 3.962 2.292 2.44 0 3.478-.55 3.478-1.845 0-.745-.296-1.299-4.087-1.67-3.17-.312-5.13-1.01-5.13-3.547 0-2.336 1.971-3.727 5.272-3.727 3.707 0 5.544 1.287 5.776 4.052a.34.34 0 0 1-.09.258.35.35 0 0 1-.246.107H41.2a.33.33 0 0 1-.325-.261c-.362-1.603-1.237-2.116-3.617-2.116-2.663 0-2.973.928-2.973 1.623 0 .843.365 1.09 3.959 1.565 3.558.472 5.248 1.14 5.248 3.64 0 2.522-2.104 3.968-5.773 3.968"/></g></svg>