<svg xmlns="http://www.w3.org/2000/svg" xml:space="preserve" width="48mm" height="48mm" viewBox="0 0 48 48"><g style="font-family:none;mix-blend-mode:normal;fill:#796948;fill-rule:nonzero;stroke:none;stroke-width:1;stroke-linecap:butt;stroke-linejoin:miter;stroke-miterlimit:10;stroke-dasharray:none;stroke-dashoffset:0;fill-opacity:1"><path d="M10.389 18.2c-1.182 0-1.97.788-1.97 1.97v19.697c0 1.182.788 1.97 1.97 1.97h8.166v-1.736a1.85 1.85 0 0 1 1.853-1.852h6.187a1.85 1.85 0 0 0 1.852-1.852v-5.239a1.85 1.85 0 0 0-1.852-1.852h-6.187a1.85 1.85 0 0 1-1.853-1.852v-7.049a1.85 1.85 0 0 1 1.853-1.852H35.22a2.05 2.05 0 0 0-1.194-.353z" style="opacity:.3"/><path d="M22.207 2.442c-6.697 0-11.818 5.121-11.818 11.819V18.2h3.94v-3.94c0-4.333 3.545-7.878 7.878-7.878s7.88 3.545 7.88 7.879V18.2h3.939v-3.94c0-6.697-5.121-11.818-11.819-11.818m3.872 26.864h-5.671a1.85 1.85 0 0 1-1.689-1.108 3.9 3.9 0 0 0-.451 1.82 3.95 3.95 0 0 0 3.94 3.94 3.95 3.95 0 0 0 3.939-3.94q-.002-.364-.068-.712"/><path d="M10.389 16.23a3.95 3.95 0 0 0-3.94 3.94v19.697a3.95 3.95 0 0 0 3.94 3.94h8.166v-3.706a2 2 0 0 1 .047-.234h-8.213V20.17h8.213a1.85 1.85 0 0 1 1.806-1.617h17.204a3.95 3.95 0 0 0-3.586-2.323Z"/></g><path fill="#e0e0e0" d="M2 22h8v8H2Zm10 0h8v8h-8zm10 0h8v8h-8ZM12 12h8v8h-8z" style="fill:#bcbcbc;fill-opacity:1" transform="translate(17.49 17.49)scale(1.00972)"/><path fill="#ffb300" d="M2 2h8v8H2Zm10 0h8v8h-8zm10 0h8v8h-8zm0 10h8v8h-8z" style="fill:#eebc46;fill-opacity:1" transform="translate(17.49 17.49)scale(1.00972)"/></svg>