<svg xmlns="http://www.w3.org/2000/svg" xml:space="preserve" width="48mm" height="48mm" viewBox="0 0 48 48"><g style="font-family:none;mix-blend-mode:normal;fill:#796948;fill-rule:nonzero;stroke:none;stroke-width:1;stroke-linecap:butt;stroke-linejoin:miter;stroke-miterlimit:10;stroke-dasharray:none;stroke-dashoffset:0;fill-opacity:1"><path d="M18 21H6c-.6 0-1-.4-1-1V10c0-.6.4-1 1-1h12c.6 0 1 .4 1 1v10c0 .6-.4 1-1 1" opacity=".3" style="fill:#796948;fill-opacity:1" transform="translate(-1.43 .472)scale(1.96977)"/><path d="M14 15c0 1.1-.9 2-2 2s-2-.9-2-2 .9-2 2-2 2 .9 2 2m4-6h-2V7c0-2.2-1.8-4-4-4S8 4.8 8 7v2H6V7c0-3.4 2.6-6 6-6s6 2.6 6 6z" style="fill:#796948;fill-opacity:1" transform="translate(-1.43 .472)scale(1.96977)"/><path d="M18 22H6c-1.1 0-2-.9-2-2V10c0-1.1.9-2 2-2h12c1.1 0 2 .9 2 2v10c0 1.1-.9 2-2 2M6 10v10h12V10Z" style="fill:#796948;fill-opacity:1" transform="translate(-1.43 .472)scale(1.96977)"/></g><path fill="#0288d1" d="M47.127 42.567a10.2 10.2 0 0 0-3.846 1.77 23.2 23.2 0 0 1-5.678 2.567 1.6 1.6 0 0 1-.954.534 60 60 0 0 1-6.265.562c-1.13.008-1.823-.29-2.015-.754a1.53 1.53 0 0 1 .84-2.015 4 4 0 0 1-.498-.368c-.167-.166-.342-.5-.395-.376-.218.533-.332 1.84-.92 2.426-.805.815-2.33.543-3.233.07-.99-.526.071-1.761.071-1.761a.71.71 0 0 1-.964-.332 4.7 4.7 0 0 1-.648-2.865 5.3 5.3 0 0 1 1.717-2.83 9.1 9.1 0 0 1 .64-4.276 10.15 10.15 0 0 1 3.076-3.558s-1.886-2.075-1.184-3.96c.455-1.226.638-1.217.788-1.27a3.5 3.5 0 0 0 1.41-.832 5.12 5.12 0 0 1 4.284-1.648s1.122-3.442 2.174-2.768a18 18 0 0 1 1.489 2.804s1.244-.728 1.384-.456a11 11 0 0 1 .508 5.958 13.6 13.6 0 0 1-2.523 5.257c-.132.22 1.508.911 2.54 3.776.956 2.62.106 4.819.255 5.064l.034.061s1.096.088 3.295-1.271a8.26 8.26 0 0 1 4.153-1.559 1.052 1.052 0 0 1 .464 2.051z" style="fill:#32aff3;fill-opacity:1;stroke-width:1.02541"/></svg>