<svg xmlns="http://www.w3.org/2000/svg" xml:space="preserve" width="48mm" height="48mm" viewBox="0 0 48 48"><path d="m19.43 4.362-.973 5.008a15.8 15.8 0 0 0-4.453 2.561l-4.809-1.658-4.635 8.022 3.852 3.348c-.148.91-.225 1.752-.225 2.562 0 .811.08 1.652.225 2.562v.004L4.56 30.119l4.635 8.019 4.806-1.655a15.8 15.8 0 0 0 4.456 2.558l.973 5.007h9.263l.972-5.007a15.8 15.8 0 0 0 4.453-2.562l4.81 1.659 4.631-8.019-3.848-3.352c.148-.91.224-1.752.224-2.562s-.077-1.65-.224-2.558v-.004l3.852-3.352-4.635-8.018-4.806 1.654a15.8 15.8 0 0 0-4.457-2.557l-.972-5.008Zm3.271 3.969h2.72l.772 3.968 2.07.783a11.8 11.8 0 0 1 3.34 1.915l1.713 1.403 3.814-1.31 1.36 2.352-3.046 2.651.348 2.182v.004c.122.744.175 1.368.175 1.926s-.053 1.182-.175 1.926l-.352 2.182 3.046 2.65-1.36 2.357-3.81-1.314-1.717 1.407a11.8 11.8 0 0 1-3.337 1.915h-.004l-2.07.782-.77 3.969H22.7l-.771-3.969-2.07-.782a11.8 11.8 0 0 1-3.34-1.915l-1.713-1.403-3.814 1.31-1.36-2.352 3.05-2.655-.353-2.174v-.004a12 12 0 0 1-.174-1.93c0-.558.053-1.182.174-1.926l.353-2.182-3.05-2.65 1.36-2.357 3.814 1.314 1.713-1.407a11.8 11.8 0 0 1 3.34-1.915l2.07-.783zm1.36 7.937c-4.358 0-7.937 3.579-7.937 7.937s3.579 7.937 7.937 7.937 7.937-3.579 7.937-7.937-3.578-7.937-7.937-7.937m0 3.968a3.95 3.95 0 0 1 3.969 3.969 3.95 3.95 0 0 1-3.969 3.969 3.95 3.95 0 0 1-3.968-3.969 3.95 3.95 0 0 1 3.968-3.969" style="font-family:none;mix-blend-mode:normal;fill:#858b8f;fill-opacity:1;fill-rule:nonzero;stroke:none;stroke-width:1.98425;stroke-linecap:butt;stroke-linejoin:miter;stroke-miterlimit:10;stroke-dasharray:none;stroke-dashoffset:0"/><path fill="#74b8c4" d="M46.848 25.348c-1.113-2.023-3.135-2.697-4.55-2.697-1.787-.068-3.203.944-2.9 1.618.068.101.405.843.607 1.112.27.405.843.101 1.011 0 .573-.27 1.113-.404 1.787-.27.674.068 1.45.439 2.022 1.517 1.281 2.529-2.798 7.854-7.955 4.147-5.157-3.708-10.146-2.427-12.37-1.753-2.26.741-3.304 1.45-2.428 3.202 1.247 2.292.843 1.618 2.023 3.54 1.921 3.033 6-1.416 6-1.416-3.101 4.483-5.663 3.438-6.675 1.854-.91-1.416-1.617-3.068-1.617-3.068-7.686 2.73-5.63 14.73-5.63 14.73h3.877c1.01-4.415 4.483-4.247 5.09 0h2.899c2.629-8.629 9.202 0 9.202 0h3.809c-1.079-5.932 2.123-7.786 4.146-11.224 1.854-3.337 3.775-7.618 1.652-11.292m-9.877 11.36c-2.022-.675-1.28-2.697-1.28-2.697s1.786.606 4.145 1.348c-.168.674-1.415 1.854-2.865 1.348" style="stroke-width:.0329181"/></svg>