<svg xmlns="http://www.w3.org/2000/svg" viewBox="0 0 32 32"><path d="M16.828 2a1.3 1.3 0 0 0-.914.377l-.014.01L7.322 7.34l8.557 8.55v.005l2.035 2.033v-.203a1.83 1.83 0 0 1 2.744-1.584l6.26 3.613-5.863-14.07-3.3-3.297A1.3 1.3 0 0 0 16.83 2z" style="fill:#66c3fa"/><path d="m7.344 7.32-4.955 8.565-.01.013a1.297 1.297 0 0 0 .004 1.834l.004.006 4.105 4.108 11.422 4.488v-8.441l-1.92-1.922h-.012z" style="fill:#215896"/><path d="m7.322 7.324 8.752 8.754h.014l1.826 1.828v-.181a1.83 1.83 0 0 1 2.744-1.584l9.338 5.39L30 14.09l-4.049-3.967a6.5 6.5 0 0 0-3.619-1.611l.004-.043z" style="fill:#235997"/><path d="m7.332 7.336 1.135 15.002.045-.004a6.5 6.5 0 0 0 1.611 3.617L14.09 30h3.824V17.92l-1.824-1.822v-.012z" style="fill:#58b6f0"/><path d="M35.524 11.702V-4.38a1.732 1.732 150 0 1 2.598-1.5L52.05 2.161a1.732 1.732 90 0 1 0 3l-13.927 8.04a1.732 1.732 30 0 1-2.598-1.5" style="fill:#56ee13;stroke-width:11.3386;stroke-linecap:round;stroke-linejoin:round;fill-opacity:1" transform="translate(-8.917 21.478)scale(.7739)"/></svg>