<svg xmlns="http://www.w3.org/2000/svg" width="100" height="100" viewBox="0 0 256 256"><path fill="#6a7071" d="M20.5 6h-12A2.503 2.503 0 0 0 6 8.5v12C6 21.878 7.122 23 8.5 23h12c1.378 0 2.5-1.122 2.5-2.5v-12C23 7.122 21.878 6 20.5 6m19 0h-12A2.503 2.503 0 0 0 25 8.5v12c0 1.378 1.122 2.5 2.5 2.5h12c1.378 0 2.5-1.122 2.5-2.5v-12C42 7.122 40.878 6 39.5 6m-19 19h-12A2.503 2.503 0 0 0 6 27.5v12C6 40.878 7.122 42 8.5 42h12c1.378 0 2.5-1.122 2.5-2.5v-12c0-1.378-1.122-2.5-2.5-2.5m19 0h-12a2.503 2.503 0 0 0-2.5 2.5v12c0 1.378 1.122 2.5 2.5 2.5h12c1.378 0 2.5-1.122 2.5-2.5v-12c0-1.378-1.122-2.5-2.5-2.5" font-family="none" font-size="none" font-weight="none" style="mix-blend-mode:normal" text-anchor="none" transform="scale(5.33333)"/></svg>