<svg xmlns="http://www.w3.org/2000/svg" xml:space="preserve" width="48mm" height="48mm" viewBox="0 0 48 48"><path d="M20.144 3.925H6.97a2.75 2.75 0 0 0-2.744 2.744V19.84a2.75 2.75 0 0 0 2.744 2.744h13.173a2.75 2.75 0 0 0 2.744-2.744V6.669a2.75 2.75 0 0 0-2.744-2.744m20.855 0H27.827a2.75 2.75 0 0 0-2.744 2.744V19.84a2.75 2.75 0 0 0 2.744 2.744H41a2.75 2.75 0 0 0 2.745-2.744V6.669A2.75 2.75 0 0 0 41 3.925M20.144 24.78H6.97a2.75 2.75 0 0 0-2.744 2.745v13.172a2.75 2.75 0 0 0 2.744 2.744h13.173a2.75 2.75 0 0 0 2.744-2.744V27.525a2.75 2.75 0 0 0-2.744-2.745m20.855 0H27.827a2.75 2.75 0 0 0-2.744 2.745v13.172a2.75 2.75 0 0 0 2.744 2.744H41a2.75 2.75 0 0 0 2.745-2.744V27.525A2.75 2.75 0 0 0 41 24.78" style="font-family:none;mix-blend-mode:normal;fill:#6a7071;fill-rule:nonzero;stroke:none;stroke-width:1.09768;stroke-linecap:butt;stroke-linejoin:miter;stroke-miterlimit:10;stroke-dasharray:none;stroke-dashoffset:0"/><path fill="#74b8c4" d="M46.848 25.348c-1.113-2.023-3.135-2.697-4.55-2.697-1.787-.068-3.203.944-2.9 1.618.068.101.405.843.607 1.112.27.405.843.101 1.011 0 .573-.27 1.113-.404 1.787-.27.674.068 1.45.439 2.022 1.517 1.281 2.529-2.798 7.854-7.955 4.147-5.157-3.708-10.146-2.427-12.37-1.753-2.26.741-3.304 1.45-2.428 3.202 1.247 2.292.843 1.618 2.023 3.54 1.921 3.033 6-1.416 6-1.416-3.101 4.483-5.663 3.438-6.675 1.854-.91-1.416-1.617-3.068-1.617-3.068-7.686 2.73-5.63 14.73-5.63 14.73h3.877c1.01-4.415 4.483-4.247 5.09 0h2.899c2.629-8.629 9.202 0 9.202 0h3.809c-1.079-5.932 2.123-7.786 4.146-11.224 1.854-3.337 3.775-7.618 1.652-11.292m-9.877 11.36c-2.022-.675-1.28-2.697-1.28-2.697s1.786.606 4.145 1.348c-.168.674-1.415 1.854-2.865 1.348" style="stroke-width:.0329181"/></svg>