<svg xmlns="http://www.w3.org/2000/svg" width="100" height="100" viewBox="-4 -4 52 52"><path fill="#38c67a" d="M24 14.088C11.427 14.088 1.108 23.716 0 36h48c-1.108-12.284-11.427-21.912-24-21.912m9.179 12.991a1.999 1.999 0 1 1 3.998 0 1.999 1.999 0 0 1-3.998 0m-20.357 1.999a1.999 1.999 0 1 1 0-3.998 1.999 1.999 0 0 1 0 3.998"/><path fill="#30dc80" d="M34.038 19.313a.822.822 0 0 1-.711-1.232l5.197-9.008a.822.822 0 0 1 1.423.821l-5.197 9.008a.82.82 0 0 1-.712.411m-20.076 0a.82.82 0 0 1-.712-.411L8.054 9.894a.822.822 0 0 1 1.422-.821l5.197 9.008a.82.82 0 0 1-.711 1.232"/></svg>