<svg xmlns="http://www.w3.org/2000/svg" xml:space="preserve" width="48mm" height="48mm" viewBox="0 0 48 48"><g style="font-family:none;mix-blend-mode:normal;fill:#878680;fill-rule:nonzero;stroke:none;stroke-width:1;stroke-linecap:butt;stroke-linejoin:miter;stroke-miterlimit:10;stroke-dasharray:none;stroke-dashoffset:0;fill-opacity:1"><path d="M19 20c0 .6-.4 1-1 1H6c-.6 0-1-.4-1-1V4c0-.6.4-1 1-1h7.6L19 8.4Z" opacity=".3" style="fill:#878680;fill-opacity:1" transform="translate(.324 .289)scale(1.97742)"/><path d="M8 12h8v2H8Zm0 4h8v2H8Z" style="fill:#878680;fill-opacity:1" transform="translate(.324 .289)scale(1.97742)"/><path d="M18 22H6c-1.1 0-2-.9-2-2V4c0-1.1.9-2 2-2h8l6 6v12c0 1.1-.9 2-2 2M6 4v16h12V8.8L13.2 4Z" style="fill:#878680;fill-opacity:1" transform="translate(.324 .289)scale(1.97742)"/><path d="M18.5 9H13V3.5Z" style="fill:#878680;fill-opacity:1" transform="translate(.324 .289)scale(1.97742)"/></g><circle cx="34.043" cy="33.94" r="10.816" style="fill:#fff;fill-opacity:1;stroke-width:3.4611;stroke-linecap:round;stroke-linejoin:round"/><path d="M33.704 19.819c-7.767 0-14.064 6.296-14.064 14.064s6.297 14.064 14.064 14.064 14.064-6.297 14.064-14.064-6.296-14.064-14.064-14.064m8.026 10.84-9.844 9.844a1.403 1.403 0 0 1-1.989 0l-4.22-4.22a1.405 1.405 0 0 1 0-1.988c.55-.55 1.44-.55 1.99 0l3.224 3.225 8.85-8.85a1.406 1.406 0 1 1 1.99 1.988" style="font-family:none;mix-blend-mode:normal;fill:#4baf23;fill-opacity:1;fill-rule:nonzero;stroke:none;stroke-width:1.40639;stroke-linecap:butt;stroke-linejoin:miter;stroke-miterlimit:10;stroke-dasharray:none;stroke-dashoffset:0"/></svg>