<svg xmlns="http://www.w3.org/2000/svg" viewBox="0 0 16 16"><g fill="#2ea7e8"><path d="M1 1v14h14V1Zm.778.778h12.444v12.444H1.778Z"/><path d="M11.102 6.686c-1.175 0-1.928.747-1.928 1.735 0 1.074.63 1.579 1.578 1.984l.327.14c.607.264.965.427.965.878 0 .373-.35.645-.895.645-.645 0-1.019-.333-1.299-.8l-1.073.622c.39.762 1.175 1.345 2.403 1.345 1.245 0 2.177-.645 2.177-1.835 0-1.097-.63-1.587-1.75-2.069l-.326-.14c-.567-.241-.808-.406-.808-.793 0-.32.24-.568.63-.568.373 0 .621.163.846.567l1.02-.677c-.428-.747-1.035-1.034-1.867-1.034m-6.766.062v1.167h1.166v5.173h1.362V7.915h1.361V6.748z"/></g></svg>