<svg xmlns="http://www.w3.org/2000/svg" width="100" height="100" viewBox="0 0 256 256"><g fill="#65a7da" stroke-miterlimit="10" font-family="none" font-size="none" font-weight="none" style="mix-blend-mode:normal" text-anchor="none"><path d="M213.333 202.667H42.667C36.267 202.667 32 198.4 32 192V64c0-6.4 4.267-10.667 10.667-10.667h170.666C219.733 53.333 224 57.6 224 64v128c0 6.4-4.267 10.667-10.667 10.667" opacity=".3"/><path d="M213.333 213.333H42.667c-11.734 0-21.334-9.6-21.334-21.333V64c0-11.733 9.6-21.333 21.334-21.333h170.666c11.734 0 21.334 9.6 21.334 21.333v128c0 11.733-9.6 21.333-21.334 21.333M42.667 64v128h170.666V64z"/><path d="m195.2 170.667-40.533-53.334L117.333 160l-26.666-26.667-28.8 37.334z"/></g></svg>