<svg xmlns="http://www.w3.org/2000/svg" xml:space="preserve" width="48mm" height="48mm" viewBox="0 0 48 48"><g style="font-family:none;mix-blend-mode:normal;fill:#86827a;fill-opacity:1;fill-rule:nonzero;stroke:none;stroke-width:1;stroke-linecap:butt;stroke-linejoin:miter;stroke-miterlimit:10;stroke-dasharray:none;stroke-dashoffset:0"><path d="M20 19H4c-.6 0-1-.4-1-1V6c0-.6.4-1 1-1h16c.6 0 1 .4 1 1v12c0 .6-.4 1-1 1" opacity=".3" style="fill:#86827a;fill-opacity:1" transform="translate(.431 .503)scale(1.99528)"/><path d="M20 20H4c-1.1 0-2-.9-2-2V6c0-1.1.9-2 2-2h16c1.1 0 2 .9 2 2v12c0 1.1-.9 2-2 2M4 6v12h16V6Z" style="fill:#86827a;fill-opacity:1" transform="translate(.431 .503)scale(1.99528)"/><path d="m18.3 16-3.8-5-3.5 4-2.5-2.5L5.8 16Z" style="fill:#86827a;fill-opacity:1" transform="translate(.431 .503)scale(1.99528)"/></g><path fill="#eec831" d="M47.77 30.505a2.67 2.67 0 0 0-2.142-1.801l-6.334-.97L36.46 21.7a2.67 2.67 0 0 0-2.43-1.544A2.67 2.67 0 0 0 31.6 21.7l-2.834 6.035-6.334.969a2.67 2.67 0 0 0-2.142 1.8 2.67 2.67 0 0 0 .625 2.727l4.663 4.78-1.1 6.747a2.687 2.687 0 0 0 3.951 2.782l5.601-3.095 5.601 3.1a2.687 2.687 0 0 0 3.952-2.783l-1.101-6.747 4.663-4.781c.706-.724.944-1.77.625-2.73" style="stroke-width:.0309465"/></svg>