<svg xmlns="http://www.w3.org/2000/svg" width="200" height="200" class="icon" viewBox="0 0 1024 1024"><path fill="#F57C00" d="M301.333 750.677 94.677 588.011l102.656-190.678L491.99 512z"/><path fill="#1E88E5" d="m938.667 313.344-16 493.333-328 131.99-197.334-128 288-298.667z"/><path fill="#2962FF" d="M938.667 313.344 678.656 620.011 560 234.667l113.344-136z"/><path fill="#AB47BC" d="M740.01 418.667 496 793.344l-341.333 123.99 54.677-192L280 488z"/><path fill="#E91E63" d="M280 488 85.333 422.677 209.344 85.333l266.667 32 264 301.334z"/><path fill="#000001" d="M234.667 234.667H768V768H234.667z"/><path fill="#FFF" d="M298.667 672h192v32h-192zm138.666-333.333v-40H330.667v40h32v138.666h-32v40h106.666v-40h-28.608V338.667zm104 184c-40 0-61.248-23.424-69.333-33.024l30.101-34.24c5.44 6.016 20.566 21.93 39.232 21.93 24 0 29.334-24 29.334-37.333V298.667h48V440c0 13.312 0 34.667-16 56-11.2 14.933-37.334 26.667-61.334 26.667"/></svg>