<svg xmlns="http://www.w3.org/2000/svg" viewBox="0 0 16 16"><g fill="#ddb848"><path d="M11.763 4.922V6.29h1.369v6.84H6.288v-1.367H4.921V14.5H14.5V4.922Z"/><path d="M1.5 1.5h9.579v9.58H1.5zm2.517 8.003c.213.452.633.823 1.352.823.798 0 1.346-.424 1.346-1.355V5.895h-.904v3.054c0 .458-.187.575-.48.575-.308 0-.436-.213-.58-.463zm3.182-.096c.266.522.804.92 1.645.92.851 0 1.49-.44 1.49-1.256 0-.75-.432-1.085-1.198-1.415l-.224-.095c-.388-.166-.552-.276-.552-.543 0-.219.164-.389.43-.389.256 0 .427.113.58.389l.698-.463c-.292-.51-.708-.708-1.278-.708-.803 0-1.32.511-1.32 1.186 0 .735.431 1.081 1.08 1.358l.225.095c.414.18.66.292.66.602 0 .256-.239.441-.613.441-.442 0-.697-.227-.888-.547z"/></g></svg>