<svg xmlns="http://www.w3.org/2000/svg" width="200" height="200" class="icon" viewBox="0 0 1024 1024"><path fill="#ddb848" d="M92.16 92.16v839.68h839.68V92.16Zm456.95 654.876c0 81.718-47.98 119.016-117.892 119.016-63.164 0-99.712-32.612-118.454-72.16l64.288-38.798c12.37 21.93 23.616 40.486 50.792 40.486 25.866 0 42.36-10.122 42.36-49.67V477.7h78.906zm186.68 119.016c-73.284 0-120.704-34.862-143.758-80.594l64.288-37.11c16.868 27.552 38.986 47.982 77.782 47.982 32.614 0 53.606-16.308 53.606-38.986 0-26.99-21.368-36.548-57.542-52.48l-19.68-8.434c-56.978-24.178-94.65-54.73-94.65-119.018 0-59.226 45.17-104.21 115.456-104.21 50.23 0 86.216 17.432 112.082 63.164l-61.476 39.36c-13.496-24.178-28.116-33.738-50.794-33.738-23.054 0-37.674 14.62-37.674 33.738 0 23.616 14.62 33.174 48.544 47.982l19.68 8.434c67.1 28.676 104.774 58.102 104.774 124.078 0 70.848-55.854 109.832-130.638 109.832" style="stroke-width:.93714"/></svg>