<svg xmlns="http://www.w3.org/2000/svg" xml:space="preserve" width="48mm" height="48mm" viewBox="0 0 48 48"><g style="font-family:none;mix-blend-mode:normal;fill:#878680;fill-rule:nonzero;stroke:none;stroke-width:1;stroke-linecap:butt;stroke-linejoin:miter;stroke-miterlimit:10;stroke-dasharray:none;stroke-dashoffset:0;fill-opacity:1"><path d="M19 20c0 .6-.4 1-1 1H6c-.6 0-1-.4-1-1V4c0-.6.4-1 1-1h7.6L19 8.4Z" opacity=".3" style="fill:#878680;fill-opacity:1" transform="translate(.324 .289)scale(1.97742)"/><path d="M8 12h8v2H8Zm0 4h8v2H8Z" style="fill:#878680;fill-opacity:1" transform="translate(.324 .289)scale(1.97742)"/><path d="M18 22H6c-1.1 0-2-.9-2-2V4c0-1.1.9-2 2-2h8l6 6v12c0 1.1-.9 2-2 2M6 4v16h12V8.8L13.2 4Z" style="fill:#878680;fill-opacity:1" transform="translate(.324 .289)scale(1.97742)"/><path d="M18.5 9H13V3.5Z" style="fill:#878680;fill-opacity:1" transform="translate(.324 .289)scale(1.97742)"/></g><g transform="translate(-16.893 -2.668)scale(1.38832)"><circle cx="36.818" cy="26.111" r="6.374" style="fill:#fff;fill-opacity:1;stroke-width:2.03967;stroke-linecap:round;stroke-linejoin:round"/><path fill="#d81e06" d="m46.726 22.014-1.358 4.195 1.358 4.196-3.927 2.007-2.007 3.927-4.196-1.358-4.196 1.358-2.006-3.927-3.928-2.007 1.359-4.196-1.359-4.195 3.928-2.007 2.006-3.928 4.196 1.359 4.196-1.359 2.007 3.928zm-14.898 4.912 3.755 3.755 6.794-6.794-1.432-1.433-5.362 5.362-2.322-2.323z" style="fill:#d43a25;fill-opacity:1;stroke-width:.0237421"/></g></svg>