<svg xmlns="http://www.w3.org/2000/svg" width="100" height="100" viewBox="0 0 256 256"><g fill="#55a3e3" stroke-miterlimit="10" font-family="none" font-size="none" font-weight="none" style="mix-blend-mode:normal" text-anchor="none"><path d="M202.667 213.333c0 6.4-4.267 10.667-10.667 10.667H64c-6.4 0-10.667-4.267-10.667-10.667V42.667C53.333 36.267 57.6 32 64 32h81.067l57.6 57.6z" opacity=".3"/><path d="M85.333 128h85.334v21.333H85.333zm0 42.667h85.334V192H85.333z"/><path d="M192 234.667H64c-11.733 0-21.333-9.6-21.333-21.334V42.667c0-11.734 9.6-21.334 21.333-21.334h85.333l64 64v128c0 11.734-9.6 21.334-21.333 21.334m-128-192v170.666h128V93.867l-51.2-51.2z"/><path d="M197.333 96h-58.666V37.333z"/></g></svg>