<svg xmlns="http://www.w3.org/2000/svg" width="100" height="100" viewBox="0 0 256 256"><g fill="#a4a39f" stroke-miterlimit="10" font-family="none" font-size="none" font-weight="none" style="mix-blend-mode:normal" text-anchor="none"><path d="M213.333 117.333h-10.666V64c0-6.4-4.267-10.667-10.667-10.667h-53.333V42.667c0-11.734-9.6-21.334-21.334-21.334S96 30.933 96 42.667v10.666H42.667C36.267 53.333 32 57.6 32 64v53.333h10.667c11.733 0 21.333 9.6 21.333 21.334S54.4 160 42.667 160H32v53.333c0 6.4 4.267 10.667 10.667 10.667H96v-10.667C96 201.6 105.6 192 117.333 192c11.734 0 21.334 9.6 21.334 21.333V224H192c6.4 0 10.667-4.267 10.667-10.667V160h10.666c11.734 0 21.334-9.6 21.334-21.333 0-11.734-9.6-21.334-21.334-21.334" opacity=".3"/><path d="M192 234.667h-64v-21.334c0-6.4-4.267-10.666-10.667-10.666s-10.666 4.266-10.666 10.666v21.334h-64c-11.734 0-21.334-9.6-21.334-21.334v-64h21.334c6.4 0 10.666-4.266 10.666-10.666S49.067 128 42.667 128H21.333V64c0-11.733 9.6-21.333 21.334-21.333h42.666c0-18.134 13.867-32 32-32 18.134 0 32 13.866 32 32H192c11.733 0 21.333 9.6 21.333 21.333v42.667c18.134 0 32 13.866 32 32 0 18.133-13.866 32-32 32v42.666c0 11.734-9.6 21.334-21.333 21.334m-42.667-21.334H192v-64h21.333c6.4 0 10.667-4.266 10.667-10.666S219.733 128 213.333 128H192V64h-64V42.667c0-6.4-4.267-10.667-10.667-10.667s-10.666 4.267-10.666 10.667V64h-64v42.667c18.133 0 32 13.866 32 32 0 18.133-13.867 32-32 32v42.666h42.666c0-18.133 13.867-32 32-32 18.134 0 32 13.867 32 32"/></g></svg>