<svg xmlns="http://www.w3.org/2000/svg" width="100" height="100" viewBox="0 0 256 256"><g fill="#55a3e3" stroke-miterlimit="10" font-family="none" font-size="none" font-weight="none" style="mix-blend-mode:normal" text-anchor="none"><path d="M160 32v76.8l-21.333-14.933-21.334 14.933V32H74.667c-11.734 0-21.334 9.6-21.334 21.333v128h149.334V32z" opacity=".3"/><path d="M213.333 234.667H74.667c-18.134 0-32-13.867-32-32 0-18.134 13.866-32 32-32h138.666V192H74.667C68.267 192 64 196.267 64 202.667s4.267 10.666 10.667 10.666h138.666z"/><path d="M64 202.667H42.667V53.333c0-18.133 13.866-32 32-32h138.666v160H192V42.667H74.667c-6.4 0-10.667 4.266-10.667 10.666z"/><path d="m170.667 129.067-32-22.4-32 22.4V21.333h64zm-32-48 10.666 7.466V42.667H128v45.866z"/></g></svg>