<svg xmlns="http://www.w3.org/2000/svg" width="100" height="100" viewBox="2 2 46 46"><path d="M26.018 42.48q-4.408 0-8.189-1.323-3.715-1.385-5.794-3.465-.946-1.008-.82-2.268.19-1.323 1.262-2.142 1.258-1.008 2.453-.818 1.262.126 2.144 1.07 1.07 1.198 3.4 2.268 2.394 1.008 5.293 1.008 3.653 0 5.544-1.197 1.952-1.197 2.015-3.086.063-1.89-1.828-3.276-1.826-1.385-6.739-2.268-6.362-1.26-9.26-3.779-2.835-2.52-2.835-6.174 0-3.213 1.89-5.291 1.889-2.142 4.851-3.15 2.96-1.069 6.173-1.069 4.157 0 7.37 1.321 3.212 1.324 5.102 3.655.881 1.008.818 2.141-.061 1.07-1.069 1.827-1.01.692-2.394.441t-2.331-1.134q-1.576-1.512-3.4-2.078-1.828-.568-4.222-.568-2.771 0-4.726.946-1.889.943-1.889 2.77 0 1.135.568 2.08.63.882 2.392 1.637 1.765.694 5.167 1.385 4.723.946 7.431 2.395 2.773 1.448 3.97 3.4 1.197 1.892 1.197 4.41 0 2.899-1.576 5.228-1.51 2.331-4.534 3.718-2.962 1.384-7.434 1.384" aria-label="s" style="-inkscape-font-specification:&quot;Comfortaa Bold&quot;;stroke-width:199.616;stroke-linecap:round;stroke-linejoin:round;fill:#dc708f;fill-opacity:1"/></svg>