<svg xmlns="http://www.w3.org/2000/svg" width="200" height="200" class="icon" viewBox="0 0 1024 1024"><path fill="#eec831" d="M955.99 398.507a86.36 86.36 0 0 0-69.206-58.198l-204.672-31.317-91.605-194.987A86.27 86.27 0 0 0 512 64.085a86.36 86.36 0 0 0-78.507 49.92l-91.605 194.987-204.672 31.317a86.36 86.36 0 0 0-69.205 58.198 86.36 86.36 0 0 0 20.181 88.106l150.699 154.454-35.584 218.026a86.827 86.827 0 0 0 127.701 89.899L512 848.982 692.992 949.12a86.827 86.827 0 0 0 127.701-89.899L785.11 641.195l150.699-154.496c22.784-23.382 30.507-57.174 20.181-88.192"/></svg>