<svg xmlns="http://www.w3.org/2000/svg" xml:space="preserve" width="48mm" height="48mm" viewBox="0 0 48 48"><g style="font-family:none;mix-blend-mode:normal;fill:#85847e;fill-opacity:1;fill-rule:nonzero;stroke:none;stroke-width:1;stroke-linecap:butt;stroke-linejoin:miter;stroke-miterlimit:10;stroke-dasharray:none;stroke-dashoffset:0"><path d="M19 20c0 .6-.4 1-1 1H6c-.6 0-1-.4-1-1V4c0-.6.4-1 1-1h7.6L19 8.4Z" opacity=".3" style="fill:#85847e;fill-opacity:1" transform="translate(.083 .079)scale(1.99305)"/><path d="m7 18 2.5-3.3 1.5 2 2.5-3.3L17 18z" style="fill:#85847e;fill-opacity:1" transform="translate(.083 .079)scale(1.99305)"/><path d="M18 22H6c-1.1 0-2-.9-2-2V4c0-1.1.9-2 2-2h8l6 6v12c0 1.1-.9 2-2 2M6 4v16h12V8.8L13.2 4Z" style="fill:#85847e;fill-opacity:1" transform="translate(.083 .079)scale(1.99305)"/><path d="M18.5 9H13V3.5Z" style="fill:#85847e;fill-opacity:1" transform="translate(.083 .079)scale(1.99305)"/></g><path fill="#eec831" d="M47.417 30.707a2.59 2.59 0 0 0-2.072-1.743l-6.13-.938-2.744-5.84a2.58 2.58 0 0 0-2.352-1.496 2.59 2.59 0 0 0-2.35 1.496l-2.745 5.84-6.13.938a2.59 2.59 0 0 0-2.072 1.743 2.59 2.59 0 0 0 .604 2.639l4.514 4.626-1.066 6.53a2.6 2.6 0 0 0 3.825 2.692l5.42-2.995 5.421 2.999a2.6 2.6 0 0 0 3.825-2.693l-1.066-6.53 4.514-4.627c.682-.7.914-1.712.604-2.641" style="stroke-width:.0299508"/></svg>