<svg xmlns="http://www.w3.org/2000/svg" width="200" height="200" class="icon" viewBox="0 0 1024 1024"><path fill="#da5f4f" d="M873.326 789.943h-40.667L605.597 160.559a55.59 55.59 0 0 0-52.635-37.679h-81.924a55.59 55.59 0 0 0-52.635 37.679L191.34 789.943h-40.667a27.794 27.794 0 0 0-27.794 27.794v55.589a27.794 27.794 0 0 0 27.794 27.794H373.03a27.794 27.794 0 0 0 27.794-27.794v-55.589a27.794 27.794 0 0 0-27.794-27.794h-34.014l40.476-111.177H644.51l40.476 111.177H650.97a27.794 27.794 0 0 0-27.794 27.794v55.589a27.794 27.794 0 0 0 27.794 27.794h222.355a27.794 27.794 0 0 0 27.794-27.794v-55.589a27.794 27.794 0 0 0-27.794-27.794M430.094 539.794 512 314.852l81.906 224.942Z" style="stroke-width:.868572;fill:#c8565c;fill-opacity:1"/></svg>