<svg xmlns="http://www.w3.org/2000/svg" xml:space="preserve" width="200" height="200" class="icon" viewBox="0 0 1024 1024"><path fill="#dbdbdb" d="M994.147 709.328c-3.47 0-6.94.805-10.038 2.293L740.522 826.877 496.934 711.683h-.123a23.35 23.35 0 0 0-10.039-2.293c-14.5 0-26.211 13.446-26.211 29.991a30.12 30.12 0 0 0 16.235 27.699L730.36 887.046h.123a23.35 23.35 0 0 0 10.039 2.293c3.47 0 6.878-.806 10.038-2.293h.123l253.565-119.966c10.224-5.391 16.545-16.173 16.235-27.76 0-16.607-11.711-29.992-26.273-29.992zm-517.6-72.314L730.173 756.98h.124a22.71 22.71 0 0 0 20.014 0h.124l253.502-119.966c10.038-5.64 16.235-16.235 16.235-27.699s-6.197-22.06-16.235-27.699l-253.5-120.027h-.124a22.71 22.71 0 0 0-20.015 0h-.124L476.55 581.616c-10.039 5.64-16.236 16.235-16.236 27.7 0 11.463 6.197 22.059 16.235 27.698zm517.6 202.442c-3.47 0-6.94.806-10.038 2.293L740.522 957.005 496.934 841.811h-.123a23.35 23.35 0 0 0-10.039-2.293c-14.5 0-26.211 13.447-26.273 29.991-.372 11.588 5.948 22.308 16.235 27.7l253.626 119.965h.123a22.71 22.71 0 0 0 20.015 0h.123l253.564-119.966c10.287-5.39 16.545-16.11 16.235-27.699 0-16.606-11.773-29.991-26.273-30.053" style="fill:#ebc64b;fill-opacity:1;stroke-width:.619657"/><g style="fill:#a6acb0;fill-opacity:1"><path d="m603.86 984.48-94.39-44.06h-1.86s-16.509 44.06 35.78 44.06zM870.9 490.49l41.28 19.27V376.2c2.772-38.513-30.276-63.284-41.28-79.79zm-30.24-14.11V279.94c-2.772-5.544-8.278-2.772-11.05 0-11.459 13.354-38.102 50.791-88.87 149.79zM440.24 591.85a6567 6567 0 0 0 18.92-32.63l-18.92 8.83z" style="fill:#a6acb0;fill-opacity:1"/><path d="M623.2.17c-11.008-.177-22.016.335-33.02 1.7-24.737 2.73-55.02 5.496-77.07 13.77-2.772 0-8.272 8.23-2.77 8.23s24.78 2.78 24.78 2.78-24.74 5.498-24.74 11c0 5.544 2.728 5.54 5.5 5.54 2.73 0 63.29-2.772 88.07 0 27.51 5.46 57.792 19.196 77.07 52.25 33.011 60.563 19.241 118.352 11.01 137.63-17.376 38.235-87.627 162.683-161.89 293.01l131.65-61.45c60.386-121.668 117.453-220.614 151.32-237.06v.04c19.278-8.274 33.014-11 46.79-8.27 22.007 5.544 33.006 22.006 41.28 30.28 8.274 16.506 38.514 33.008 52.29 35.78 11.004 2.73 30.284-27.51 44.06-55.02 13.733-24.822 22.002-57.826 19.23-66.1-2.73-8.231-41.279-24.74-49.51-24.74-5.544 0-16.552 5.502-35.83 2.73-19.192-2.73-38.509-24.742-49.47-41.29-19.32-27.51-46.83-44.014-71.61-57.79-27.51-13.776-57.799-22.008-88.08-27.51C689.249 7.395 656.223.7 623.2.17" style="fill:#a6acb0;fill-opacity:1"/><path d="M210.38 73.43a203.184 203.184 0 0 0-203.7 203.7v500.96c0 112.852 90.844 203.662 189.92 200.89 27.51 0 35.789-22.014 44.02-38.52v-.04h-13.73A178.533 178.533 0 0 1 47.97 761.55V299.14a178.533 178.533 0 0 1 178.92-178.92h399.07c-8.274-8.274-41.289-22.01-74.3-19.28-13.776 0-41.282 5.546-57.83-5.5-16.506-13.733-13.73-22.01-38.51-22.01Z" style="fill:#a6acb0;fill-opacity:1"/><path d="M440.24 591.85v-23.8l18.92-8.83c11.566-20.078 23.126-40.454 34.67-61.93-2.73-13.776-5.502-30.284-2.73-44.06 2.73-22.007 13.777-41.284 27.51-57.79l16.51 27.51c52.331-90.844 90.836-167.869 101.84-198.15 5.544-16.506 13.781-49.56 5.55-77.07H229.66c-85.342 0-151.41 68.797-151.41 151.41v462.32c0 82.613 68.797 151.41 151.41 151.41h24.73c0-2.772 33.013-60.564 104.58-181.69 8.274-16.463 19.276-32.972 30.28-52.25H188.37c-24.78 0-38.558-16.504-41.33-30.28-5.502-22.007 8.279-49.56 38.56-49.56h101.81l129.4-225.66s-30.286-55.014-38.56-68.79c-11.004-19.278-5.506-38.556 5.54-49.56 16.463-16.506 44.02-24.735 71.53 19.28l11 16.5 11.01-16.5c24.737-35.826 41.277-33.062 55.01-30.29 22.05 5.502 35.828 30.287 16.55 68.8L378.25 599.09h57.79c1.4-2.397 2.8-4.842 4.2-7.24M256.18 694.87c34.272.885 51.028 23.098 53.28 25.35 0 0-35.829 63.286-46.79 74.29s-24.784 13.782-38.56 11.01c-22.007-5.502-35.784-27.512-27.51-46.79 0-2.73 33.01-60.56 33.01-60.56 9.812-2.575 18.661-3.504 26.57-3.3m201.17 221.22-17.11-7.99V683.88c-67.435 117.806-126.992 221.935-133.56 237.26-16.506 38.513-22.007 63.29 24.78 88.07s71.567 13.736 85.3-2.77c3.323-4.42 19.417-41.379 40.59-90.35" style="fill:#a6acb0;fill-opacity:1"/></g></svg>