<svg xmlns="http://www.w3.org/2000/svg" width="200" height="200" class="icon" viewBox="0 0 1024 1024"><path d="M229.66 147.73c-85.342 0-151.41 68.797-151.41 151.41v462.32c0 82.613 68.797 151.41 151.41 151.41h24.73c0-2.772 33.014-60.564 104.58-181.69 8.274-16.463 19.276-32.972 30.28-52.25H188.37c-24.78 0-38.558-16.504-41.33-30.28-5.502-22.007 8.279-49.56 38.56-49.56h101.81l129.4-225.66s-30.286-55.014-38.56-68.79c-11.004-19.278-5.506-38.556 5.54-49.56 16.463-16.506 44.02-24.735 71.53 19.28l11 16.5 11.01-16.5c24.737-35.826 41.277-33.062 55.01-30.29 22.05 5.502 35.828 30.287 16.55 68.8L378.25 599.09h57.79c19.278-33.011 38.555-66.017 57.79-101.8-2.73-13.776-5.502-30.284-2.73-44.06 2.73-22.007 13.777-41.284 27.51-57.79l16.51 27.51c52.331-90.844 90.836-167.869 101.84-198.15 5.544-16.506 13.781-49.56 5.55-77.07zm26.52 547.14c34.272.885 51.028 23.098 53.28 25.35 0 0-35.829 63.286-46.79 74.29s-24.784 13.782-38.56 11.01c-22.007-5.502-35.784-27.512-27.51-46.79 0-2.73 33.01-60.56 33.01-60.56 9.812-2.575 18.661-3.504 26.57-3.3" style="fill:#a6acb0"/><path d="M210.38 73.43a203.184 203.184 0 0 0-203.7 203.7v500.96c0 112.852 90.844 203.662 189.92 200.89 27.51 0 35.789-22.014 44.02-38.52v-.04h-13.73A178.533 178.533 0 0 1 47.97 761.55V299.14a178.533 178.533 0 0 1 178.92-178.92h399.07c-8.274-8.274-41.289-22.01-74.3-19.28-13.776 0-41.282 5.546-57.83-5.5-16.506-13.733-13.73-22.01-38.51-22.01Z" style="fill:#a6acb0"/><path d="M623.2.17c-11.008-.177-22.016.335-33.02 1.7-24.737 2.73-55.02 5.496-77.07 13.77-2.772 0-8.272 8.23-2.77 8.23s24.78 2.78 24.78 2.78-24.74 5.498-24.74 11c0 5.544 2.728 5.54 5.5 5.54 2.73 0 63.29-2.772 88.07 0 27.51 5.46 57.792 19.196 77.07 52.25 33.011 60.563 19.241 118.352 11.01 137.63-41.285 90.844-368.844 649.557-385.35 688.07s-22.007 63.29 24.78 88.07 71.567 13.736 85.3-2.77c5.666-7.535 43.713-98 93.73-212.61a247.5 247.5 0 0 1-6.46-53.88A247.52 247.52 0 0 1 632.82 524.1c70.681-147.915 141.028-277.464 180.29-296.53v.04c19.278-8.274 33.014-11 46.79-8.27 22.007 5.544 33.006 22.006 41.28 30.28 8.274 16.506 38.514 33.008 52.29 35.78 11.004 2.73 30.284-27.51 44.06-55.02 13.733-24.822 22.002-57.826 19.23-66.1-2.73-8.231-41.279-24.74-49.51-24.74-5.544 0-16.552 5.502-35.83 2.73-19.192-2.73-38.509-24.742-49.47-41.29-19.32-27.51-46.83-44.014-71.61-57.79-27.51-13.776-57.799-22.008-88.08-27.51C689.249 7.395 656.223.7 623.2.17" style="fill:#a6acb0"/><path d="M870.9 523.14a247.5 247.5 0 0 1 41.28 28.57V376.2c2.772-38.513-30.276-63.284-41.28-79.79zm-163.52-26.36a247.5 247.5 0 0 1 44.18-4.35 247.5 247.5 0 0 1 89.1 16.68V279.94c-2.772-5.544-8.278-2.772-11.05 0-13.743 16.015-49.05 66.034-122.23 216.84m10.29 487.36a247.5 247.5 0 0 1-110.14-43.72h-99.92s-16.509 44.06 35.78 44.06h165.14a203 203 0 0 0 9.14-.34" style="fill:#a6acb0"/><path fill="#a4a39f" d="m684.829 459.178-13.772 70.91a224.8 224.8 0 0 0-63.068 36.284l-68.127-23.44-65.654 113.545 54.552 47.442a225 225 0 0 0-3.176 36.312c0 11.495 1.124 23.412 3.176 36.284v.056l-54.552 47.442 65.654 113.545 68.07-23.412a224.8 224.8 0 0 0 63.125 36.228l13.772 70.91h131.195l13.772-70.91a224.8 224.8 0 0 0 63.068-36.284l68.128 23.496 65.597-113.573-54.524-47.498c2.108-12.873 3.204-24.817 3.204-36.256s-1.096-23.412-3.176-36.256v-.056l54.553-47.498-65.654-113.545-68.071 23.44a224.8 224.8 0 0 0-63.125-36.256l-13.772-70.91zm46.317 56.21h38.56l10.906 56.211 29.314 11.102a168.6 168.6 0 0 1 47.329 27.093l24.255 19.87 54.018-18.549 19.252 33.333-43.141 37.549 4.946 30.916v.03c1.715 10.54 2.473 19.392 2.473 27.262 0 7.926-.758 16.779-2.473 27.318l-5.003 30.916 43.17 37.52-19.28 33.39-53.962-18.606-24.311 19.927a168.6 168.6 0 0 1-47.273 27.093h-.056l-29.314 11.101-10.905 56.21h-38.504l-10.905-56.21-29.314-11.101a168.6 168.6 0 0 1-47.33-27.095l-24.254-19.87-54.018 18.549-19.253-33.333 43.198-37.605-5.003-30.775v-.056a168.6 168.6 0 0 1-2.473-27.347c0-7.897.759-16.75 2.473-27.262l5.003-30.916-43.198-37.548 19.252-33.39 54.019 18.606 24.255-19.926a168.6 168.6 0 0 1 47.33-27.094l29.313-11.101zm19.28 112.422c-61.747 0-112.42 50.674-112.42 112.421s50.673 112.421 112.42 112.421 112.422-50.674 112.422-112.42c0-61.748-50.674-112.422-112.421-112.422m0 56.21c31.225 0 56.21 24.986 56.21 56.211s-24.985 56.21-56.21 56.21-56.211-24.985-56.211-56.21 24.986-56.21 56.21-56.21" font-family="none" font-size="none" font-weight="none" style="mix-blend-mode:normal;fill:#60a7f2;fill-opacity:1;stroke-width:28.1054" text-anchor="none"/></svg>