<svg xmlns="http://www.w3.org/2000/svg" width="200" height="200" class="icon" viewBox="0 0 1024 1024"><path d="M623.2.17c-11.008-.177-22.016.335-33.02 1.7-24.737 2.73-55.02 5.496-77.07 13.77-2.772 0-8.272 8.23-2.77 8.23s24.78 2.78 24.78 2.78-24.74 5.498-24.74 11c0 5.544 2.728 5.54 5.5 5.54 2.73 0 63.29-2.772 88.07 0 27.51 5.46 57.792 19.196 77.07 52.25 33.011 60.563 19.241 118.352 11.01 137.63-41.285 90.844-368.844 649.557-385.35 688.07s-22.007 63.29 24.78 88.07 71.567 13.736 85.3-2.77c16.548-22.007 300.004-732.083 396.35-778.87v.04c19.278-8.274 33.014-11 46.79-8.27 22.007 5.544 33.006 22.006 41.28 30.28 8.274 16.506 38.514 33.008 52.29 35.78 11.004 2.73 30.284-27.51 44.06-55.02 13.733-24.822 22.002-57.826 19.23-66.1-2.73-8.231-41.279-24.74-49.51-24.74-5.544 0-16.552 5.502-35.83 2.73-19.192-2.73-38.509-24.742-49.47-41.29-19.32-27.51-46.83-44.014-71.61-57.79-27.51-13.776-57.799-22.008-88.08-27.51C689.249 7.395 656.223.7 623.2.17" style="fill:#bac3c6;fill-opacity:1"/><g style="fill:#3193dc;fill-opacity:1"><path d="M870.9 296.41c11.004 16.506 44.052 41.277 41.28 79.79v404.58a203.184 203.184 0 0 1-203.65 203.7H543.39c-52.289 0-35.78-44.06-35.78-44.06h184.42A178.533 178.533 0 0 0 870.9 761.55Z" style="fill:#3193dc;fill-opacity:1"/><path d="M835.14 276.82c2.069-.347 4.134.348 5.52 3.12V761.5c0 82.613-68.84 151.41-151.41 151.41H518.61c33.054-77.068 60.56-143.087 88.07-203.65l38.56 66.02c19.235 35.783 55.014 35.786 71.52 19.28 11.004-11.004 19.278-27.516 0-60.57l-33.01-55.01h41.29c44.015 0 55.062-27.553 52.29-49.56 0-8.231-8.275-30.28-52.29-30.28h-66.01l-.02.04-.04-.04h.06c107.293-233.899 154.076-299.966 170.58-319.2 1.386-1.386 3.461-2.773 5.53-3.12M47.97 692H27.15v117.8h28.18a178.5 178.5 0 0 1-7.36-48.25z" style="fill:#3193dc;fill-opacity:1"/><path d="M210.38 73.43a203.184 203.184 0 0 0-203.7 203.7v500.96c0 112.852 90.844 203.662 189.92 200.89 27.51 0 35.789-22.014 44.02-38.52v-.04h-13.73A178.53 178.53 0 0 1 55.33 809.8H27.15V692h20.82V299.14a178.533 178.533 0 0 1 178.92-178.92h399.07c-8.274-8.274-41.289-22.01-74.3-19.28-13.776 0-41.282 5.546-57.83-5.5-16.506-13.733-13.73-22.01-38.51-22.01Z" style="fill:#3193dc;fill-opacity:1"/><path d="M78.25 692v69.46c0 16.864 2.994 33.095 8.26 48.34h222.18v-88.26c-1.38 2.433-35.278 62.186-46.02 72.97-10.961 11.004-24.784 13.782-38.56 11.01-22.007-5.502-35.784-27.512-27.51-46.79 0-2.73 33.01-60.56 33.01-60.56 50.732-13.313 75.086 16.84 79.08 21.25V692Z" style="fill:#3193dc;fill-opacity:1"/><path d="M78.25 692h230.44v27.42c.126.139.685.715.77.8 0 0-.742 1.27-.77 1.32v88.26H86.51c20.53 59.435 77.402 103.07 143.15 103.07h24.73c0-2.772 33.014-60.564 104.58-181.69 8.274-16.463 19.276-32.972 30.28-52.25H188.37c-24.78 0-38.558-16.504-41.33-30.28-5.502-22.007 8.279-49.56 38.56-49.56h101.81l129.4-225.66s-30.286-55.014-38.56-68.79c-11.004-19.278-5.506-38.556 5.54-49.56 16.463-16.506 44.02-24.735 71.53 19.28l11 16.5 11.01-16.5c24.737-35.826 41.277-33.062 55.01-30.29 22.05 5.502 35.828 30.287 16.55 68.8L378.25 599.09h57.79c19.278-33.011 38.555-66.017 57.79-101.8-2.73-13.776-5.502-30.284-2.73-44.06 2.73-22.007 13.777-41.284 27.51-57.79l16.51 27.51c52.331-90.844 90.836-167.869 101.84-198.15 5.544-16.506 13.781-49.56 5.55-77.07H229.66c-85.342 0-151.41 68.797-151.41 151.41z" style="fill:#3193dc;fill-opacity:1"/></g></svg>