<svg xmlns="http://www.w3.org/2000/svg" xml:space="preserve" width="48mm" height="48mm" viewBox="0 0 48 48"><g style="font-family:none;mix-blend-mode:normal;fill:#707577;fill-opacity:1;fill-rule:nonzero;stroke:none;stroke-width:1;stroke-linecap:butt;stroke-linejoin:miter;stroke-miterlimit:10;stroke-dasharray:none;stroke-dashoffset:0"><path d="M21 18c0 .6-.4 1-1 1H4c-.6 0-1-.4-1-1V6c0-.6.4-1 1-1h5.6l2 2H20c.6 0 1 .4 1 1z" opacity=".3" style="fill:#707577;fill-opacity:1" transform="translate(.164 .074)scale(1.99528)"/><path d="M20 20H4c-1.1 0-2-.9-2-2V6c0-1.1.9-2 2-2h6l2 2h8c1.1 0 2 .9 2 2v10c0 1.1-.9 2-2 2M4 6v12h16V8h-8.8l-2-2z" style="fill:#707577;fill-opacity:1" transform="translate(.164 .074)scale(1.99528)"/></g><g fill="#30dc80"><path d="M32.891 30.162c-7.801 0-14.204 5.974-14.891 13.596h29.782c-.687-7.622-7.09-13.596-14.891-13.596m5.695 8.06a1.24 1.24 0 1 1 2.481 0 1.24 1.24 0 0 1-2.48 0m-12.63 1.241a1.24 1.24 0 1 1 0-2.48 1.24 1.24 0 0 1 0 2.48"/><path d="M39.12 33.404a.51.51 0 0 1-.441-.764l3.224-5.59a.508.508 0 1 1 .883.51l-3.225 5.59a.51.51 0 0 1-.442.254m-12.456 0a.51.51 0 0 1-.442-.255l-3.224-5.59a.51.51 0 0 1 .882-.509l3.225 5.59a.51.51 0 0 1-.441.764"/></g></svg>