<svg xmlns="http://www.w3.org/2000/svg" xml:space="preserve" width="48mm" height="48mm" viewBox="0 0 48 48"><g style="font-family:none;mix-blend-mode:normal;fill:#707577;fill-opacity:1;fill-rule:nonzero;stroke:none;stroke-width:1;stroke-linecap:butt;stroke-linejoin:miter;stroke-miterlimit:10;stroke-dasharray:none;stroke-dashoffset:0"><path d="M21 18c0 .6-.4 1-1 1H4c-.6 0-1-.4-1-1V6c0-.6.4-1 1-1h5.6l2 2H20c.6 0 1 .4 1 1z" opacity=".3" style="fill:#707577;fill-opacity:1" transform="translate(.164 .074)scale(1.99528)"/><path d="M20 20H4c-1.1 0-2-.9-2-2V6c0-1.1.9-2 2-2h6l2 2h8c1.1 0 2 .9 2 2v10c0 1.1-.9 2-2 2M4 6v12h16V8h-8.8l-2-2z" style="fill:#707577;fill-opacity:1" transform="translate(.164 .074)scale(1.99528)"/></g><path fill="#dbdbdb" d="M39.12 22.537c1.128-1.272 1.889-3.04 1.682-4.8-1.625.061-3.591 1.005-4.758 2.276-1.045 1.127-1.958 2.924-1.714 4.652 1.813.131 3.662-.858 4.79-2.128m4.067 11.173c-.04-3.807 3.336-5.633 3.488-5.725-1.898-2.583-4.854-2.937-5.906-2.977-2.514-.238-4.907 1.378-6.184 1.378-1.273 0-3.243-1.344-5.328-1.31a8 8 0 0 0-6.681 3.77c-2.848 4.6-.729 11.415 2.047 15.148 1.357 1.824 2.975 3.877 5.097 3.802 2.046-.075 2.819-1.231 5.291-1.231 2.474 0 3.168 1.23 5.332 1.193 2.2-.037 3.595-1.86 4.94-3.69 1.559-2.12 2.2-4.173 2.239-4.277-.05-.022-4.29-1.534-4.335-6.08" style="stroke-width:.0293555"/></svg>