<svg xmlns="http://www.w3.org/2000/svg" xml:space="preserve" width="48mm" height="48mm" viewBox="0 0 48 48"><g style="font-family:none;mix-blend-mode:normal;fill:#707577;fill-opacity:1;fill-rule:nonzero;stroke:none;stroke-width:1;stroke-linecap:butt;stroke-linejoin:miter;stroke-miterlimit:10;stroke-dasharray:none;stroke-dashoffset:0"><path d="M21 18c0 .6-.4 1-1 1H4c-.6 0-1-.4-1-1V6c0-.6.4-1 1-1h5.6l2 2H20c.6 0 1 .4 1 1z" opacity=".3" style="fill:#707577;fill-opacity:1" transform="translate(.164 .074)scale(1.99528)"/><path d="M20 20H4c-1.1 0-2-.9-2-2V6c0-1.1.9-2 2-2h6l2 2h8c1.1 0 2 .9 2 2v10c0 1.1-.9 2-2 2M4 6v12h16V8h-8.8l-2-2z" style="fill:#707577;fill-opacity:1" transform="translate(.164 .074)scale(1.99528)"/></g><path fill="#dbdbdb" d="M46.52 32.252c-.175 0-.35.04-.505.115l-12.247 5.795L21.52 32.37h-.006a1.2 1.2 0 0 0-.505-.115c-.729 0-1.318.676-1.318 1.508-.018.582.3 1.124.817 1.392l12.748 6.032h.006a1.17 1.17 0 0 0 1.01 0h.006l12.748-6.032a1.53 1.53 0 0 0 .816-1.395c0-.835-.588-1.508-1.32-1.508zm-26.024-3.636 12.752 6.031h.006a1.14 1.14 0 0 0 1.006 0h.006l12.745-6.031a1.598 1.598 0 0 0 0-2.785l-12.745-6.035h-.006a1.14 1.14 0 0 0-1.006 0h-.006l-12.752 6.035a1.598 1.598 0 0 0 0 2.785M46.52 38.794c-.174 0-.349.04-.504.115l-12.247 5.795-12.247-5.791h-.006a1.2 1.2 0 0 0-.505-.116c-.729 0-1.318.676-1.32 1.508-.02.583.298 1.122.815 1.393l12.752 6.031h.006a1.14 1.14 0 0 0 1.006 0h.007l12.748-6.031c.517-.271.832-.81.816-1.393 0-.835-.592-1.508-1.32-1.51" style="stroke-width:.0311543;fill:#ebc64b;fill-opacity:1"/></svg>