<svg xmlns="http://www.w3.org/2000/svg" xml:space="preserve" width="48mm" height="48mm" viewBox="0 0 48 48"><g style="font-family:none;mix-blend-mode:normal;fill:#707577;fill-opacity:1;fill-rule:nonzero;stroke:none;stroke-width:1;stroke-linecap:butt;stroke-linejoin:miter;stroke-miterlimit:10;stroke-dasharray:none;stroke-dashoffset:0"><path d="M21 18c0 .6-.4 1-1 1H4c-.6 0-1-.4-1-1V6c0-.6.4-1 1-1h5.6l2 2H20c.6 0 1 .4 1 1z" opacity=".3" style="fill:#707577;fill-opacity:1" transform="translate(.164 .074)scale(1.99528)"/><path d="M20 20H4c-1.1 0-2-.9-2-2V6c0-1.1.9-2 2-2h6l2 2h8c1.1 0 2 .9 2 2v10c0 1.1-.9 2-2 2M4 6v12h16V8h-8.8l-2-2z" style="fill:#707577;fill-opacity:1" transform="translate(.164 .074)scale(1.99528)"/></g><path fill="#ea4335" d="M23.859 25.48c6.28-7.308 17.927-5.866 22.28 2.674H35.676c-1.885 0-3.102-.042-4.421.651-1.55.817-2.718 2.329-3.127 4.104z"/><path fill="#4285f4" d="M29.612 34.285a4.497 4.497 0 0 0 4.49 4.493 4.496 4.496 0 0 0 4.491-4.493 4.497 4.497 0 0 0-4.49-4.492 4.496 4.496 0 0 0-4.49 4.492"/><path fill="#34a853" d="M35.846 40.166c-2.521.75-5.47-.082-7.086-2.87a4013 4013 0 0 1-5.973-10.387c-5.188 7.95-.717 18.785 8.7 20.634z"/><path fill="#fbbc05" d="M38.273 29.793a6.15 6.15 0 0 1 1.135 7.564c-1.07 1.847-4.49 7.618-6.148 10.413 9.703.598 16.777-8.91 13.582-17.978h-8.569Z"/></svg>