<svg xmlns="http://www.w3.org/2000/svg" xml:space="preserve" width="48mm" height="48mm" viewBox="0 0 48 48"><g style="font-family:none;mix-blend-mode:normal;fill:#707577;fill-opacity:1;fill-rule:nonzero;stroke:none;stroke-width:1;stroke-linecap:butt;stroke-linejoin:miter;stroke-miterlimit:10;stroke-dasharray:none;stroke-dashoffset:0"><path d="M21 18c0 .6-.4 1-1 1H4c-.6 0-1-.4-1-1V6c0-.6.4-1 1-1h5.6l2 2H20c.6 0 1 .4 1 1z" opacity=".3" style="fill:#707577;fill-opacity:1" transform="translate(.164 .074)scale(1.99528)"/><path d="M20 20H4c-1.1 0-2-.9-2-2V6c0-1.1.9-2 2-2h6l2 2h8c1.1 0 2 .9 2 2v10c0 1.1-.9 2-2 2M4 6v12h16V8h-8.8l-2-2z" style="fill:#707577;fill-opacity:1" transform="translate(.164 .074)scale(1.99528)"/></g><path fill="#66c3fa" d="M33.896 18.528a1.36 1.36 0 0 0-.95.39l-.013.01-8.889 5.133 8.866 8.86v.006l10.656 10.65 2.031-3.658-7.324-17.575-3.419-3.416a1.35 1.35 0 0 0-.96-.4Z"/><path fill="#215896" d="m24.065 24.04-5.135 8.876-.01.014a1.344 1.344 0 0 0 .004 1.901l.005.005 4.255 4.256 16.646 6.543 3.764-2.088-.101-.101-.026.002L33.03 33.004h-.013z"/><path fill="#235997" d="m24.042 24.045 9.07 9.072h.014L43.564 43.56l3.974-.757.005-11.748-4.195-4.109a6.76 6.76 0 0 0-3.75-1.67l.002-.045-15.556-1.185Z"/><path fill="#58b6f0" d="m24.053 24.056 9.076 9.068v.013l10.444 10.436-.76 3.97H31.057l-4.11-4.195a6.74 6.74 0 0 1-1.67-3.749l-.046.004z"/></svg>