<svg xmlns="http://www.w3.org/2000/svg" xml:space="preserve" width="48mm" height="48mm" viewBox="0 0 48 48"><g style="font-family:none;mix-blend-mode:normal;fill:#707577;fill-opacity:1;fill-rule:nonzero;stroke:none;stroke-width:1;stroke-linecap:butt;stroke-linejoin:miter;stroke-miterlimit:10;stroke-dasharray:none;stroke-dashoffset:0"><path d="M21 18c0 .6-.4 1-1 1H4c-.6 0-1-.4-1-1V6c0-.6.4-1 1-1h5.6l2 2H20c.6 0 1 .4 1 1z" opacity=".3" style="fill:#707577;fill-opacity:1" transform="translate(.164 .074)scale(1.99528)"/><path d="M20 20H4c-1.1 0-2-.9-2-2V6c0-1.1.9-2 2-2h6l2 2h8c1.1 0 2 .9 2 2v10c0 1.1-.9 2-2 2M4 6v12h16V8h-8.8l-2-2z" style="fill:#707577;fill-opacity:1" transform="translate(.164 .074)scale(1.99528)"/></g><path fill="#40c4ff" d="m20.286 33.214 4.406 4.406 19.09-19.091h-8.81zm15.419 6.608L31.3 35.417l3.671-3.671h8.811z"/><path fill="#03a9f4" d="m26.894 39.822 4.405-4.405 4.406 4.405-4.405 4.406z"/><path fill="#01579b" d="M34.971 47.899 31.3 44.228l4.405-4.406 8.077 8.077z"/><path fill="#084994" d="M35.705 39.822 31.3 44.228l6.608-2.203z"/></svg>