<svg xmlns="http://www.w3.org/2000/svg" width="100" height="100" viewBox="0 0 256 256"><g fill="#a4a39f" stroke-miterlimit="10" font-family="none" font-size="none" font-weight="none" style="mix-blend-mode:normal" text-anchor="none"><path d="M224 192c0 6.4-4.267 10.667-10.667 10.667H42.667C36.267 202.667 32 198.4 32 192V64c0-6.4 4.267-10.667 10.667-10.667H102.4l21.333 21.334h89.6c6.4 0 10.667 4.266 10.667 10.666z" opacity=".3"/><path d="M213.333 213.333H42.667c-11.734 0-21.334-9.6-21.334-21.333V64c0-11.733 9.6-21.333 21.334-21.333h64L128 64h85.333c11.734 0 21.334 9.6 21.334 21.333V192c0 11.733-9.6 21.333-21.334 21.333M42.667 64v128h170.666V85.333h-93.866L98.133 64z"/></g></svg>