<svg xmlns="http://www.w3.org/2000/svg" xml:space="preserve" width="48mm" height="48mm" viewBox="0 0 48 48"><g style="font-family:none;mix-blend-mode:normal;fill:#707577;fill-opacity:1;fill-rule:nonzero;stroke:none;stroke-width:1;stroke-linecap:butt;stroke-linejoin:miter;stroke-miterlimit:10;stroke-dasharray:none;stroke-dashoffset:0"><path d="M8.145 10.05c-1.197 0-1.995.799-1.995 1.996v23.943c0 1.197.798 1.995 1.995 1.995h10.626a15.8 15.8 0 0 1-.566-4.016 15.763 15.763 0 0 1 15.763-15.763 15.76 15.76 0 0 1 8.097 2.245v-4.414c0-1.197-.798-1.995-1.996-1.995H23.31l-3.99-3.99z" style="opacity:.3"/><path d="M8.145 8.055a4 4 0 0 0-3.99 3.99V35.99a4 4 0 0 0 3.99 3.99h11.3a15.8 15.8 0 0 1-1.063-3.99H8.145V12.046h10.376l3.99 3.99H40.07v3.402a15.8 15.8 0 0 1 3.991 2.424v-5.826a4.003 4.003 0 0 0-3.99-3.99H24.107l-3.991-3.99z"/></g><path fill="#a4a39f" d="m30.84 19.96-.691 3.56a11.3 11.3 0 0 0-3.166 1.82l-3.42-1.176-3.295 5.7 2.738 2.381a11 11 0 0 0-.16 1.823c0 .577.057 1.175.16 1.821v.003l-2.738 2.381 3.295 5.7 3.417-1.176a11.3 11.3 0 0 0 3.169 1.819l.691 3.56h6.585l.692-3.56a11.3 11.3 0 0 0 3.165-1.821l3.42 1.179 3.293-5.7-2.737-2.385c.106-.646.16-1.246.16-1.82s-.054-1.175-.159-1.82v-.002l2.739-2.385-3.296-5.699-3.417 1.177a11.3 11.3 0 0 0-3.168-1.82l-.692-3.56Zm2.325 2.822h1.936l.547 2.821 1.471.558a8.5 8.5 0 0 1 2.376 1.36l1.217.997 2.712-.931.966 1.673-2.165 1.885.248 1.552v.001c.086.53.124.973.124 1.368 0 .398-.038.843-.124 1.372l-.251 1.552 2.167 1.883-.968 1.676-2.709-.934-1.22 1a8.5 8.5 0 0 1-2.373 1.36h-.002l-1.472.557-.547 2.822h-1.933l-.547-2.822-1.472-.557a8.5 8.5 0 0 1-2.375-1.36l-1.218-.997-2.711.93-.967-1.672 2.169-1.888-.252-1.545v-.003a8.5 8.5 0 0 1-.124-1.372c0-.397.038-.841.124-1.369l.252-1.551-2.169-1.885.967-1.676 2.711.934 1.218-1a8.5 8.5 0 0 1 2.375-1.36l1.472-.558zm.968 5.643c-3.1 0-5.643 2.543-5.643 5.643s2.543 5.643 5.643 5.643 5.643-2.544 5.643-5.643c0-3.1-2.544-5.643-5.643-5.643m0 2.821a2.81 2.81 0 0 1 2.821 2.822 2.81 2.81 0 0 1-2.821 2.821 2.81 2.81 0 0 1-2.822-2.821 2.81 2.81 0 0 1 2.822-2.822" font-family="none" font-size="none" font-weight="none" style="mix-blend-mode:normal;fill:#60a7f2;fill-opacity:1;stroke-width:1.41075" text-anchor="none"/></svg>