<svg xmlns="http://www.w3.org/2000/svg" xml:space="preserve" width="48mm" height="48mm" viewBox="0 0 48 48"><g style="font-family:none;mix-blend-mode:normal;fill:#707577;fill-opacity:1;fill-rule:nonzero;stroke:none;stroke-width:1;stroke-linecap:butt;stroke-linejoin:miter;stroke-miterlimit:10;stroke-dasharray:none;stroke-dashoffset:0"><path d="M21 18c0 .6-.4 1-1 1H4c-.6 0-1-.4-1-1V6c0-.6.4-1 1-1h5.6l2 2H20c.6 0 1 .4 1 1z" opacity=".3" style="fill:#707577;fill-opacity:1" transform="translate(.164 .074)scale(1.99528)"/><path d="M20 20H4c-1.1 0-2-.9-2-2V6c0-1.1.9-2 2-2h6l2 2h8c1.1 0 2 .9 2 2v10c0 1.1-.9 2-2 2M4 6v12h16V8h-8.8l-2-2z" style="fill:#707577;fill-opacity:1" transform="translate(.164 .074)scale(1.99528)"/></g><g transform="translate(-41.31 -2.46)scale(1.0183)"><circle cx="73.493" cy="35.662" r="13.897" style="fill:#e8e8e8;fill-opacity:1;stroke-width:2.57272;stroke-linecap:round;stroke-linejoin:round"/><path d="M73.438 21.258c-7.837 0-14.19 6.354-14.19 14.191 0 6.65 4.578 12.214 10.751 13.754a2.1 2.1 0 0 1-.108-.69v-2.425h-1.784c-.97 0-1.834-.417-2.253-1.193-.464-.862-.545-2.18-1.697-2.987-.342-.269-.081-.575.312-.534.728.206 1.33.705 1.899 1.445.565.742.83.91 1.887.91.512 0 1.278-.03 2-.143.388-.985 1.058-1.892 1.878-2.32-4.726-.487-6.981-2.838-6.981-6.03 0-1.374.585-2.703 1.58-3.823-.327-1.111-.737-3.379.125-4.242 2.126 0 3.412 1.38 3.72 1.752a10.6 10.6 0 0 1 3.447-.57c1.225 0 2.393.207 3.455.572.305-.37 1.592-1.754 3.723-1.754.866.865.45 3.141.12 4.25.99 1.118 1.571 2.444 1.571 3.816 0 3.189-2.251 5.539-6.97 6.027 1.299.678 2.246 2.582 2.246 4.016v3.234c0 .123-.027.211-.042.317 5.53-1.939 9.503-7.19 9.503-13.382 0-7.837-6.355-14.19-14.192-14.19" style="stroke-width:1.1826"/></g></svg>