<svg xmlns="http://www.w3.org/2000/svg" xml:space="preserve" width="48mm" height="48mm" viewBox="0 0 48 48"><g style="font-family:none;mix-blend-mode:normal;fill:#707577;fill-opacity:1;fill-rule:nonzero;stroke:none;stroke-width:1;stroke-linecap:butt;stroke-linejoin:miter;stroke-miterlimit:10;stroke-dasharray:none;stroke-dashoffset:0"><path d="M21 18c0 .6-.4 1-1 1H4c-.6 0-1-.4-1-1V6c0-.6.4-1 1-1h5.6l2 2H20c.6 0 1 .4 1 1z" opacity=".3" style="fill:#707577;fill-opacity:1" transform="translate(.164 .074)scale(1.99528)"/><path d="M20 20H4c-1.1 0-2-.9-2-2V6c0-1.1.9-2 2-2h6l2 2h8c1.1 0 2 .9 2 2v10c0 1.1-.9 2-2 2M4 6v12h16V8h-8.8l-2-2z" style="fill:#707577;fill-opacity:1" transform="translate(.164 .074)scale(1.99528)"/></g><path fill="#74b8c4" d="M47.023 24.248c-1.109-2.014-3.124-2.686-4.534-2.686-1.78-.067-3.19.94-2.888 1.612.067.1.403.84.604 1.108.27.403.84.1 1.008 0 .57-.269 1.108-.403 1.78-.269.671.068 1.444.437 2.015 1.512 1.276 2.518-2.788 7.824-7.926 4.13s-10.108-2.418-12.324-1.746c-2.25.739-3.291 1.444-2.418 3.19 1.242 2.284.84 1.612 2.015 3.526 1.914 3.023 5.977-1.41 5.977-1.41-3.09 4.466-5.641 3.425-6.649 1.847-.907-1.41-1.612-3.056-1.612-3.056-7.657 2.72-5.608 14.675-5.608 14.675h3.862c1.007-4.399 4.466-4.231 5.07 0h2.889c2.62-8.597 9.168 0 9.168 0h3.794c-1.074-5.91 2.116-7.757 4.131-11.183 1.847-3.324 3.761-7.59 1.646-11.25m-9.84 11.318c-2.015-.672-1.276-2.687-1.276-2.687s1.78.604 4.13 1.343c-.167.672-1.41 1.847-2.854 1.344" style="stroke-width:.0327949"/></svg>