<svg xmlns="http://www.w3.org/2000/svg" xml:space="preserve" width="48mm" height="48mm" viewBox="0 0 48 48"><g style="font-family:none;mix-blend-mode:normal;fill:#707577;fill-opacity:1;fill-rule:nonzero;stroke:none;stroke-width:1;stroke-linecap:butt;stroke-linejoin:miter;stroke-miterlimit:10;stroke-dasharray:none;stroke-dashoffset:0"><path d="M21 18c0 .6-.4 1-1 1H4c-.6 0-1-.4-1-1V6c0-.6.4-1 1-1h5.6l2 2H20c.6 0 1 .4 1 1z" opacity=".3" style="fill:#707577;fill-opacity:1" transform="translate(.164 .074)scale(1.99528)"/><path d="M20 20H4c-1.1 0-2-.9-2-2V6c0-1.1.9-2 2-2h6l2 2h8c1.1 0 2 .9 2 2v10c0 1.1-.9 2-2 2M4 6v12h16V8h-8.8l-2-2z" style="fill:#707577;fill-opacity:1" transform="translate(.164 .074)scale(1.99528)"/></g><path fill="#d81e06" d="M29.674 21.422s-2.526-.12-4.137 2.054-.4 5.497.363 7.21c.764 1.714 4.795 8.438 4.943 8.586s.324.086.334-.047c.01-.132.46-9.77.098-12.147-.363-2.376-1.437-5.396-1.601-5.656m-8.73 4.48c-.288.033-2.36 2.191-2.547 4.302s.677 3.515 3.091 5.195c2.43 1.8 8.206 5.113 8.312 4.827.107-.284-2.238-4.636-4.156-7.801-1.919-3.165-4.412-6.555-4.7-6.523m.777 19.468c1.748.817 4.471-1.017 5.224-1.55.7-.56 1.995-1.587 1.995-1.587l-9.904.276s.937 2.044 2.685 2.861m.249-8.362c-1.773-.927-5.42-3.056-5.562-3.016s-.692 2.69.448 4.687 3.362 2.607 4.381 2.77c1.146.171 7.884.095 7.839-.047-.04-.123-5.332-3.468-7.106-4.394m16.432-13.532c-1.61-2.174-4.136-2.054-4.136-2.054-.164.26-1.238 3.28-1.6 5.656-.364 2.377.088 12.015.098 12.147.01.133.185.195.333.047.147-.148 4.18-6.872 4.944-8.585.762-1.714 1.973-5.036.361-7.21m9.13 10.515c-.143-.04-3.79 2.09-5.562 3.016s-7.067 4.27-7.105 4.394c-.046.142 6.692.218 7.838.047 1.019-.163 3.24-.773 4.38-2.77 1.142-1.997.591-4.646.449-4.687M36.994 43.82c.754.533 3.478 2.367 5.226 1.55s2.685-2.86 2.685-2.86l-9.904-.277s1.294 1.028 1.993 1.587m8.55-13.616c-.188-2.11-2.26-4.27-2.547-4.302-.289-.032-2.783 3.358-4.7 6.523-1.92 3.165-4.264 7.517-4.158 7.801.107.286 5.883-3.027 8.313-4.827 2.414-1.68 3.28-3.085 3.092-5.195"/></svg>