<svg xmlns="http://www.w3.org/2000/svg" xml:space="preserve" width="48mm" height="48mm" viewBox="0 0 48 48"><g style="font-family:none;mix-blend-mode:normal;fill:#707577;fill-opacity:1;fill-rule:nonzero;stroke:none;stroke-width:1;stroke-linecap:butt;stroke-linejoin:miter;stroke-miterlimit:10;stroke-dasharray:none;stroke-dashoffset:0"><path d="M21 18c0 .6-.4 1-1 1H4c-.6 0-1-.4-1-1V6c0-.6.4-1 1-1h5.6l2 2H20c.6 0 1 .4 1 1z" opacity=".3" style="fill:#707577;fill-opacity:1" transform="translate(.164 .074)scale(1.99528)"/><path d="M20 20H4c-1.1 0-2-.9-2-2V6c0-1.1.9-2 2-2h6l2 2h8c1.1 0 2 .9 2 2v10c0 1.1-.9 2-2 2M4 6v12h16V8h-8.8l-2-2z" style="fill:#707577;fill-opacity:1" transform="translate(.164 .074)scale(1.99528)"/></g><path fill="#f57c00" d="m26.653 41.242-6.873-5.41 3.414-6.343 9.8 3.814Z"/><path fill="#1e88e5" d="m47.852 26.696-.532 16.409-10.91 4.39-6.564-4.258 9.58-9.934z"/><path fill="#2962ff" d="m47.852 26.696-8.648 10.2-3.947-12.817 3.77-4.524Z"/><path fill="#ab47bc" d="M41.244 30.199 33.128 42.66l-11.353 4.124 1.819-6.386 2.35-7.894Z"/><path fill="#e91e63" d="m25.944 32.505-6.475-2.173 4.125-11.22 8.87 1.064 8.78 10.023z"/><path fill="#000001" d="M24.436 24.079h17.74v17.74h-17.74Z"/><path fill="#fff" d="M26.565 38.625h6.386v1.064h-6.386zm4.612-11.087v-1.33h-3.548v1.33h1.064v4.612H27.63v1.33h3.548v-1.33h-.952v-4.612Zm3.46 6.12c-1.331 0-2.038-.779-2.307-1.098l1.001-1.14c.181.2.684.73 1.305.73.798 0 .976-.798.976-1.242v-4.7h1.596v4.7c0 .443 0 1.154-.532 1.863-.372.497-1.242.887-2.04.887"/></svg>