<svg xmlns="http://www.w3.org/2000/svg" xml:space="preserve" width="48mm" height="48mm" viewBox="0 0 48 48"><g style="font-family:none;mix-blend-mode:normal;fill:#707577;fill-opacity:1;fill-rule:nonzero;stroke:none;stroke-width:1;stroke-linecap:butt;stroke-linejoin:miter;stroke-miterlimit:10;stroke-dasharray:none;stroke-dashoffset:0"><path d="M4 5c-.6 0-1 .4-1 1v12c0 .6.4 1 1 1h5.494v-6.866a2.774 2.774 0 0 1 2.774-2.774H21V8c0-.6-.4-1-1-1h-8.4l-2-2Z" style="opacity:.3" transform="translate(.164 .074)scale(1.99528)"/><path d="M8.145 8.055a4 4 0 0 0-3.99 3.99V35.99a4 4 0 0 0 3.99 3.99h10.962v-3.99H8.145V12.046H18.52l3.99 3.99h17.56v2.714h3.99v-2.713a4.003 4.003 0 0 0-3.99-3.991H24.106l-3.99-3.99Z"/></g><path fill="#cf554d" d="M18.777 45.618h26.639v2.22H18.777ZM45.416 21.2H22.107a1.11 1.11 0 0 0-1.11 1.11v14.429a4.44 4.44 0 0 0 4.44 4.44h11.1a4.44 4.44 0 0 0 4.44-4.44v-4.44h4.439a2.22 2.22 0 0 0 2.22-2.22v-6.66a2.22 2.22 0 0 0-2.22-2.22m0 8.88h-4.44v-6.66h4.44z" style="stroke-width:1.10993"/></svg>