<svg xmlns="http://www.w3.org/2000/svg" xml:space="preserve" width="48mm" height="48mm" viewBox="0 0 48 48"><g style="font-family:none;mix-blend-mode:normal;fill:#707577;fill-opacity:1;fill-rule:nonzero;stroke:none;stroke-width:1;stroke-linecap:butt;stroke-linejoin:miter;stroke-miterlimit:10;stroke-dasharray:none;stroke-dashoffset:0"><path d="M4 5c-.6 0-1 .4-1 1v12c0 .6.4 1 1 1h6.135v-7.054a2.074 2.074 0 0 1 2.074-2.074H21V8c0-.6-.4-1-1-1h-8.4l-2-2Z" style="opacity:.3" transform="translate(.164 .074)scale(1.99528)"/><path d="M8.145 8.055a4 4 0 0 0-3.99 3.99V35.99a4 4 0 0 0 3.99 3.99h12.24v-3.99H8.145V12.046H18.52l3.99 3.99h17.56v3.735h3.99v-3.734a4.003 4.003 0 0 0-3.99-3.991H24.106l-3.99-3.99Z"/></g><path fill="#8855d4" d="M22.181 22.003H47.64L34.91 34.732l12.73 12.73H22.181z" style="stroke-width:.02988;fill:#8d50ea;fill-opacity:1"/></svg>