<svg xmlns="http://www.w3.org/2000/svg" xml:space="preserve" width="48mm" height="48mm" viewBox="0 0 48 48"><g style="font-family:none;mix-blend-mode:normal;fill:#707577;fill-opacity:1;fill-rule:nonzero;stroke:none;stroke-width:1;stroke-linecap:butt;stroke-linejoin:miter;stroke-miterlimit:10;stroke-dasharray:none;stroke-dashoffset:0"><path d="M21 18c0 .6-.4 1-1 1H4c-.6 0-1-.4-1-1V6c0-.6.4-1 1-1h5.6l2 2H20c.6 0 1 .4 1 1z" opacity=".3" style="fill:#707577;fill-opacity:1" transform="translate(.164 .074)scale(1.99528)"/><path d="M20 20H4c-1.1 0-2-.9-2-2V6c0-1.1.9-2 2-2h6l2 2h8c1.1 0 2 .9 2 2v10c0 1.1-.9 2-2 2M4 6v12h16V8h-8.8l-2-2z" style="fill:#707577;fill-opacity:1" transform="translate(.164 .074)scale(1.99528)"/></g><path fill="#fff" d="M34.854 20.736c-.3.196-.53.482-.66.817-.133.434-.112.895.053 1.317.136.444.408.831.775 1.11.188.134.405.217.636.245s.46-.01.667-.115c.244-.136.44-.35.555-.604a2.2 2.2 0 0 0 .182-.814 2.8 2.8 0 0 0-.133-1.051 1.75 1.75 0 0 0-.681-.905 1.4 1.4 0 0 0-.538-.202 1.13 1.13 0 0 0-.57.062q-.151.063-.29.158"/><path fill="#020204" d="M44.808 34.993a14.7 14.7 0 0 0-.831-2.885 8.3 8.3 0 0 0-1.03-1.949c-.434-.576-.982-1.062-1.404-1.645-.224-.304-.413-.642-.647-.94a44 44 0 0 1-.275-.586c-.28-.611-.535-1.236-.867-1.816-.052-.091-.108-.182-.16-.27-.042-.558-.102-1.117-.133-1.676a16 16 0 0 0-.283-3.349 5.6 5.6 0 0 0-.664-1.495 5.1 5.1 0 0 0-1.299-1.4 5 5 0 0 0-2.878-.922 4.5 4.5 0 0 0-2.183.503 3.95 3.95 0 0 0-1.641 1.707 5.7 5.7 0 0 0-.524 2.323c-.028.79.045 1.572.077 2.361.031.817.014 1.638.08 2.455.021.262.053.524.053.79 0 .132-.007.265-.01.394l-.011.028a17 17 0 0 1-1.18 1.743q-.451.57-.905 1.132c-.395.443-.73.936-.996 1.466q-.266.693-.433 1.418l-.01.039a11 11 0 0 1-.699 1.76q-.225.468-.471.926l-.189.352a6 6 0 0 0-.314.657 2.2 2.2 0 0 0-.119.42c-.045.303-.024.61.056.904.017.073.042.146.066.22.077.216.168.43.276.632l.15.28.046.066q.074.131.153.258l.007.01c.06.098.126.193.189.287l.01.014c.067.09.133.185.203.276a7.3 7.3 0 0 0 1.387 2.759c-.102.178-.193.353-.294.527a8 8 0 0 0-.876 1.656c-.095.3-.12.618-.067.929.05.314.21.597.454.803.164.126.353.213.552.255s.405.063.611.053a10 10 0 0 0 2.284-.451q.67-.179 1.349-.314.708-.164 1.432-.196c.118.004.237-.003.352-.01q.492.054.989.035l.122-.007q.127.013.258.02a18 18 0 0 1 3.231.476c.765.23 1.55.384 2.35.45q.315.014.63-.049a1.4 1.4 0 0 0 .568-.258c.245-.203.406-.486.458-.8.052-.31.028-.629-.066-.93a8 8 0 0 0-.891-1.651c-.126-.213-.244-.433-.37-.646a11.5 11.5 0 0 0 1.421-1.974q.368.023.72-.09a3.02 3.02 0 0 0 1.512-1.135c.112-.158.2-.332.252-.517.24-.374.405-.793.481-1.233a6.2 6.2 0 0 0-.052-2.19zm0 0"/><path fill="#fff" d="M31.376 25.098c-.109.14-.185.304-.224.475-.038.172-.063.35-.066.524q.016.531-.088 1.052c-.122.36-.307.691-.544.988a6 6 0 0 0-.95 1.704 3 3 0 0 0-.109 1.177c-.422.626-.789 1.29-1.093 1.98a10.9 10.9 0 0 0-.89 3.298c-.15 1.4.055 2.815.593 4.114a6.8 6.8 0 0 0 1.757 2.448q.588.51 1.282.852a5.76 5.76 0 0 0 5.155-.048 10 10 0 0 0 2.186-1.73 7.6 7.6 0 0 0 1.11-1.26 7 7 0 0 0 .926-3.077c.336-1.872.13-3.8-.59-5.56a6 6 0 0 0-1.11-1.593 8.8 8.8 0 0 0-.706-2.375c-.251-.541-.555-1.058-.79-1.613-.094-.227-.177-.458-.282-.678a2.1 2.1 0 0 0-.412-.604 1.7 1.7 0 0 0-.646-.374 2.7 2.7 0 0 0-.74-.126c-.504-.024-1.01.039-1.506.021-.402-.017-.796-.087-1.198-.063-.2.01-.398.05-.583.123a1.2 1.2 0 0 0-.482.349m.16-4.37a.82.82 0 0 0-.503.224 1.1 1.1 0 0 0-.293.472 2.9 2.9 0 0 0-.066 1.117c.007.34.066.678.178 1 .063.156.153.303.272.425a.86.86 0 0 0 .905.237 1 1 0 0 0 .401-.244c.165-.167.283-.373.343-.597a2.4 2.4 0 0 0 .08-.691c0-.29-.045-.58-.133-.86a1.9 1.9 0 0 0-.44-.747 1.2 1.2 0 0 0-.335-.251.9.9 0 0 0-.409-.084m3.318 0c-.3.195-.53.482-.66.817-.133.433-.112.894.053 1.317.136.443.408.83.775 1.11.188.133.405.217.636.245s.46-.01.667-.115c.244-.137.44-.35.555-.605a2.2 2.2 0 0 0 .182-.813 2.8 2.8 0 0 0-.133-1.052 1.75 1.75 0 0 0-.681-.904 1.4 1.4 0 0 0-.538-.203 1.13 1.13 0 0 0-.57.063q-.151.063-.29.157"/><path fill="#020204" d="M35.528 21.62a.66.66 0 0 0-.31.101.8.8 0 0 0-.238.23 1.2 1.2 0 0 0-.189.626c-.01.164.014.332.067.489.052.157.15.297.276.401a.775.775 0 0 0 .943.045.86.86 0 0 0 .265-.303 1.2 1.2 0 0 0 .119-.384 1.2 1.2 0 0 0-.112-.695.97.97 0 0 0-.517-.468.8.8 0 0 0-.304-.05"/><path fill="#fff" d="M31.536 20.736a.82.82 0 0 0-.503.224 1.1 1.1 0 0 0-.293.471 2.9 2.9 0 0 0-.066 1.118c.007.339.066.677.178.999q.094.241.272.426a.86.86 0 0 0 .905.237c.15-.049.29-.132.401-.244.165-.168.283-.374.343-.597a2.4 2.4 0 0 0 .08-.692c0-.29-.045-.58-.133-.86a1.9 1.9 0 0 0-.44-.747 1.2 1.2 0 0 0-.335-.251.9.9 0 0 0-.409-.084"/><path fill="#020204" d="M31.086 22.29a1.4 1.4 0 0 0 .038.706q.084.226.252.402c.07.076.15.143.244.188.094.049.2.063.304.039a.43.43 0 0 0 .234-.158.8.8 0 0 0 .13-.255c.08-.272.073-.562-.015-.834a1.07 1.07 0 0 0-.318-.517.7.7 0 0 0-.258-.136.45.45 0 0 0-.293.024.5.5 0 0 0-.227.227 1 1 0 0 0-.095.31"/><path fill="#d99a03" d="M30.642 25.228a.2.2 0 0 0 .035.087q.047.072.119.119.067.046.136.087c.241.164.454.367.625.604.21.329.472.622.769.873.227.158.492.252.768.276.321.025.646-.014.957-.111a3.4 3.4 0 0 0 .82-.36 9 9 0 0 1 1.422-.933c.119-.042.238-.073.35-.125a.55.55 0 0 0 .272-.245 1.2 1.2 0 0 0 .066-.35c.018-.125.06-.247.08-.373a.66.66 0 0 0-.027-.377.5.5 0 0 0-.22-.22.8.8 0 0 0-.304-.077 5 5 0 0 0-.629.063c-.28.024-.559-.01-.838 0-.346.01-.692.087-1.04.101-.4.021-.794-.042-1.192-.06a2.3 2.3 0 0 0-.517.025 1.1 1.1 0 0 0-.478.185 4 4 0 0 0-.374.336 1 1 0 0 1-.206.143.5.5 0 0 1-.245.056.4.4 0 0 0-.129 0 .2.2 0 0 0-.066.042l-.053.063a1 1 0 0 0-.09.164"/><path fill="#604405" d="M31.519 24.348q-.209.126-.412.268a.54.54 0 0 0-.178.179.4.4 0 0 0-.032.174q.006.09 0 .178c-.003.039-.017.08-.017.123a.16.16 0 0 0 .035.111.15.15 0 0 0 .07.039q.037.009.08.017a.8.8 0 0 1 .325.189c.094.084.178.181.279.262.28.21.618.318.964.314a4.4 4.4 0 0 0 1.02-.143q.393-.083.772-.213a3.4 3.4 0 0 0 1.061-.636q.205-.198.433-.36c.14-.087.304-.146.444-.23l.038-.025q.016-.014.028-.034a.1.1 0 0 0 0-.077.2.2 0 0 0-.031-.063l-.06-.06a1 1 0 0 0-.551-.192c-.203-.014-.395 0-.59-.038a4 4 0 0 1-.535-.154 4 4 0 0 0-.57-.136 3.7 3.7 0 0 0-1.365.035 4.3 4.3 0 0 0-1.208.472"/><path fill="#f5bd0c" d="M31.473 23.873a2.6 2.6 0 0 0-.54.492q-.14.159-.214.36a3 3 0 0 0-.07.321.5.5 0 0 0-.017.122q0 .032.01.06a.13.13 0 0 0 .032.052.17.17 0 0 0 .09.045c.032.007.067.007.102.01a1 1 0 0 1 .422.179c.126.087.245.189.374.272.293.175.629.27.971.276a4.3 4.3 0 0 0 1.013-.1 4.4 4.4 0 0 0 .782-.22c.38-.165.737-.378 1.062-.637q.227-.166.433-.36.066-.068.14-.132a.5.5 0 0 1 .164-.094.6.6 0 0 1 .29-.004q.106.026.216.025a.4.4 0 0 0 .109-.018.2.2 0 0 0 .133-.196.3.3 0 0 0-.04-.136.5.5 0 0 0-.22-.178 2 2 0 0 0-.376-.112 5.3 5.3 0 0 1-1.142-.415c-.182-.091-.353-.189-.535-.283a3 3 0 0 0-.566-.252 2.23 2.23 0 0 0-1.365.063 2.9 2.9 0 0 0-1.261.863"/><path fill="#cd8907" d="M33.747 23.317c.025.08.15.067.224.101.073.035.115.102.185.109.073.007.174-.025.185-.091.014-.09-.119-.147-.203-.178a.42.42 0 0 0-.349-.007c-.024.01-.049.042-.042.066m-1.201-.042c-.095-.031-.248.133-.203.22.014.025.056.053.084.039s.08-.109.126-.14c.035-.028.028-.108-.007-.119m0 0"/><path fill="#f5bd0c" d="M47.515 42.792q-.107.273-.297.5c-.293.314-.65.565-1.04.74q-.995.462-1.94 1.023-.612.408-1.141.922c-.29.304-.601.583-.93.845a2.66 2.66 0 0 1-1.155.49 2.8 2.8 0 0 1-1.506-.228 1.8 1.8 0 0 1-.838-.656 2 2 0 0 1-.237-1.045q.03-.959.23-1.903c.091-.524.182-1.048.238-1.575a16.5 16.5 0 0 0 .035-2.896 2.3 2.3 0 0 1 0-.485.62.62 0 0 1 .628-.576q.226-.005.447.038.526.062 1.041.182c.213.056.426.132.64.192.355.105.733.136 1.103.101q.582-.134 1.18-.185c.165.007.329.035.482.084.161.045.311.126.433.24a1 1 0 0 1 .203.322q.1.268.122.552a6 6 0 0 0 .042.503c.06.269.189.52.37.73q.277.305.601.559.31.272.65.503c.108.073.216.14.318.22a1 1 0 0 1 .258.286.7.7 0 0 1 .07.503"/><path fill="#f5bd0c" d="M47.515 42.792q-.107.273-.297.5c-.293.314-.65.565-1.04.74q-.995.462-1.94 1.023-.612.408-1.141.922c-.29.304-.601.583-.93.845a2.66 2.66 0 0 1-1.155.49 2.8 2.8 0 0 1-1.506-.228 1.8 1.8 0 0 1-.838-.656 2 2 0 0 1-.237-1.045q.03-.959.23-1.903c.091-.524.182-1.048.238-1.575a16.5 16.5 0 0 0 .035-2.896 2.3 2.3 0 0 1 0-.485.62.62 0 0 1 .628-.576q.226-.005.447.038.526.062 1.041.182c.213.056.426.132.64.192.355.105.733.136 1.103.101q.582-.134 1.18-.185c.165.007.329.035.482.084.161.045.311.126.433.24a1 1 0 0 1 .203.322q.1.268.122.552a6 6 0 0 0 .042.503c.06.269.189.52.37.73q.277.305.601.559.31.272.65.503c.108.073.216.14.318.22a1 1 0 0 1 .258.286.7.7 0 0 1 .07.503M25.57 37.43a.97.97 0 0 1 .538-.05c.181.036.353.11.503.214.29.22.541.492.74.796.493.678.964 1.37 1.394 2.089.349.583.667 1.184 1.068 1.732.262.356.56.688.825 1.044.276.35.485.748.614 1.17.154.563.091 1.16-.17 1.68a2.2 2.2 0 0 1-.818.877c-.35.21-.75.314-1.16.304a5.6 5.6 0 0 1-1.837-.58c-1.219-.485-2.542-.64-3.8-1.016-.387-.116-.764-.255-1.156-.36a3.4 3.4 0 0 1-.513-.164.9.9 0 0 1-.402-.339.8.8 0 0 1-.101-.402q.006-.212.08-.401c.095-.262.248-.496.35-.755.153-.426.213-.883.174-1.334-.02-.45-.101-.9-.125-1.351a2.2 2.2 0 0 1 .02-.605.904.904 0 0 1 .765-.775q.277-.048.556-.035.279.015.558 0c.186-.01.37-.063.535-.15.15-.09.283-.217.384-.363q.15-.22.276-.454.124-.236.29-.444c.105-.143.248-.251.412-.328"/><path fill="#f5bd0c" d="M25.571 37.434a.97.97 0 0 1 .538-.049c.181.035.353.109.503.213.29.22.541.493.74.797.493.677.964 1.369 1.394 2.088.349.584.667 1.184 1.068 1.733.262.356.56.688.825 1.044.276.35.485.747.614 1.17.154.562.091 1.16-.17 1.68a2.2 2.2 0 0 1-.818.876c-.35.21-.75.315-1.16.304a5.6 5.6 0 0 1-1.837-.58c-1.219-.485-2.542-.639-3.8-1.016-.387-.115-.764-.255-1.156-.36a3.4 3.4 0 0 1-.513-.164.9.9 0 0 1-.402-.338.8.8 0 0 1-.101-.402q.006-.212.08-.402c.095-.262.248-.496.35-.754.153-.426.213-.884.174-1.334-.02-.45-.101-.898-.125-1.352a2.2 2.2 0 0 1 .02-.604.904.904 0 0 1 .765-.776q.277-.048.556-.034.279.015.558 0c.186-.01.37-.063.535-.15.15-.091.283-.217.384-.364q.15-.22.276-.454.124-.235.29-.443a1.03 1.03 0 0 1 .412-.329"/><path fill="#f5bd0c" d="M25.84 37.728a.8.8 0 0 1 .485-.032c.161.039.311.112.44.217.248.216.458.475.615.765.42.677.828 1.362 1.209 2.06q.413.803.929 1.544c.237.321.51.615.754.929.255.31.447.664.566 1.044.14.5.08 1.034-.157 1.499a2 2 0 0 1-.758.789c-.322.188-.692.28-1.062.262a6 6 0 0 1-1.683-.52c-1.062-.388-2.218-.437-3.308-.741-.391-.105-.772-.248-1.166-.346a4 4 0 0 1-.517-.15.86.86 0 0 1-.412-.332.74.74 0 0 1-.088-.384q.01-.2.084-.391c.094-.248.245-.475.339-.723.133-.384.178-.79.136-1.195-.028-.401-.101-.8-.122-1.204a2 2 0 0 1 .024-.538.9.9 0 0 1 .241-.475.96.96 0 0 1 .524-.245q.295-.036.583 0 .294.036.587.028a.99.99 0 0 0 .898-.573q.121-.236.206-.485a2.4 2.4 0 0 1 .234-.475.9.9 0 0 1 .401-.339"/></svg>