<svg xmlns="http://www.w3.org/2000/svg" xml:space="preserve" width="48mm" height="48mm" viewBox="0 0 48 48"><g style="font-family:none;mix-blend-mode:normal;fill:#707577;fill-opacity:1;fill-rule:nonzero;stroke:none;stroke-width:1;stroke-linecap:butt;stroke-linejoin:miter;stroke-miterlimit:10;stroke-dasharray:none;stroke-dashoffset:0"><path d="M8.145 10.05c-1.197 0-1.995.799-1.995 1.996v23.943c0 1.197.798 1.995 1.995 1.995h12.473V24.706l13.997-8.081 7.45 4.301v-4.89c0-1.197-.798-1.995-1.996-1.995H23.31l-3.99-3.99z" style="opacity:.3"/><path d="M8.145 8.055a4 4 0 0 0-3.99 3.99V35.99a4 4 0 0 0 3.99 3.99h12.473v-3.99H8.145V12.046h10.376l3.99 3.99H40.07v3.738l3.991 2.304v-6.042a4.003 4.003 0 0 0-3.99-3.99H24.107l-3.991-3.99z"/></g><g fill="#a9cd6f" stroke-miterlimit="10" font-family="none" font-size="none" font-weight="none" style="mix-blend-mode:normal" text-anchor="none"><path d="M34.644 47.807a2.3 2.3 0 0 1-1.158-.31l-3.684-2.182c-.55-.308-.282-.417-.1-.48.733-.256.882-.314 1.665-.76.082-.046.19-.03.274.02l2.831 1.68a.37.37 0 0 0 .342 0l11.037-6.371a.35.35 0 0 0 .169-.298V26.37a.35.35 0 0 0-.171-.304L34.817 19.7a.34.34 0 0 0-.34 0l-11.03 6.365a.35.35 0 0 0-.176.301v12.737c0 .122.066.238.172.295l3.022 1.746c1.641.82 2.644-.146 2.644-1.119v-12.57c0-.179.14-.317.32-.317h1.399a.316.316 0 0 1 .317.317v12.577c0 2.188-1.193 3.445-3.268 3.445-.638 0-1.14 0-2.544-.69l-2.896-1.669a2.34 2.34 0 0 1-1.158-2.014V26.367a2.32 2.32 0 0 1 1.157-2.012l11.05-6.374a2.42 2.42 0 0 1 2.32 0l11.036 6.377a2.33 2.33 0 0 1 1.156 2.012v12.737c0 .826-.445 1.596-1.157 2.011l-11.035 6.374a2.3 2.3 0 0 1-1.163.309"/><path d="M38.053 39.03c-4.829 0-5.842-2.217-5.842-4.076a.32.32 0 0 1 .32-.318h1.426a.32.32 0 0 1 .316.27c.215 1.453.856 2.185 3.776 2.185 2.326 0 3.315-.525 3.315-1.759 0-.71-.282-1.237-3.895-1.591-3.023-.298-4.89-.964-4.89-3.382 0-2.226 1.878-3.553 5.025-3.553 3.534 0 5.285 1.227 5.506 3.863a.32.32 0 0 1-.085.246.33.33 0 0 1-.235.102h-1.434a.316.316 0 0 1-.31-.25c-.345-1.527-1.18-2.016-3.448-2.016-2.539 0-2.834.884-2.834 1.547 0 .804.348 1.039 3.774 1.492 3.392.45 5.003 1.086 5.003 3.47 0 2.404-2.006 3.783-5.503 3.783"/></g></svg>