<svg xmlns="http://www.w3.org/2000/svg" xml:space="preserve" width="48mm" height="48mm" viewBox="0 0 48 48"><g style="font-family:none;mix-blend-mode:normal;fill:#707577;fill-opacity:1;fill-rule:nonzero;stroke:none;stroke-width:1;stroke-linecap:butt;stroke-linejoin:miter;stroke-miterlimit:10;stroke-dasharray:none;stroke-dashoffset:0"><path d="M21 18c0 .6-.4 1-1 1H4c-.6 0-1-.4-1-1V6c0-.6.4-1 1-1h5.6l2 2H20c.6 0 1 .4 1 1z" opacity=".3" style="fill:#707577;fill-opacity:1" transform="translate(.164 .074)scale(1.99528)"/><path d="M20 20H4c-1.1 0-2-.9-2-2V6c0-1.1.9-2 2-2h6l2 2h8c1.1 0 2 .9 2 2v10c0 1.1-.9 2-2 2M4 6v12h16V8h-8.8l-2-2z" style="fill:#707577;fill-opacity:1" transform="translate(.164 .074)scale(1.99528)"/></g><path fill="#eec831" d="M48.084 30.946a2.5 2.5 0 0 0-2.007-1.688l-5.936-.908-2.656-5.655a2.5 2.5 0 0 0-2.277-1.448 2.5 2.5 0 0 0-2.277 1.448l-2.657 5.655-5.936.908a2.5 2.5 0 0 0-2.007 1.688 2.5 2.5 0 0 0 .586 2.555l4.37 4.48-1.032 6.323a2.518 2.518 0 0 0 3.704 2.607l5.249-2.9 5.249 2.903a2.518 2.518 0 0 0 3.704-2.607l-1.032-6.323 4.37-4.48c.66-.679.885-1.659.585-2.558" style="stroke-width:.0290018"/></svg>