<svg xmlns="http://www.w3.org/2000/svg" xml:space="preserve" width="48mm" height="48mm" viewBox="0 0 48 48"><g style="font-family:none;mix-blend-mode:normal;fill:#707577;fill-opacity:1;fill-rule:nonzero;stroke:none;stroke-width:1;stroke-linecap:butt;stroke-linejoin:miter;stroke-miterlimit:10;stroke-dasharray:none;stroke-dashoffset:0"><path d="M21 18c0 .6-.4 1-1 1H4c-.6 0-1-.4-1-1V6c0-.6.4-1 1-1h5.6l2 2H20c.6 0 1 .4 1 1z" opacity=".3" style="fill:#707577;fill-opacity:1" transform="translate(.164 .074)scale(1.99528)"/><path d="M20 20H4c-1.1 0-2-.9-2-2V6c0-1.1.9-2 2-2h6l2 2h8c1.1 0 2 .9 2 2v10c0 1.1-.9 2-2 2M4 6v12h16V8h-8.8l-2-2z" style="fill:#707577;fill-opacity:1" transform="translate(.164 .074)scale(1.99528)"/></g><path fill="#d87051" d="M40.12 45.465c-3.743 2.156-8.864 2.378-14.05.158a21.9 21.9 0 0 1-9.878-8.435c1.063.872 2.315 1.585 3.647 2.22 5.344 2.489 10.671 2.315 14.43 0-5.344-4.107-9.895-9.45-13.272-13.811-.714-.714-1.237-1.601-1.776-2.394 13.129 9.593 12.558 12.034 3.821-1.602 7.754 7.833 14.952 12.273 14.952 12.273.254.143.397.253.571.349.159-.397.302-.809.413-1.237 1.252-4.52-.175-9.704-3.298-13.97 7.214 4.361 11.495 12.543 9.703 19.408-.047.175-.095.35-.079.619 3.552 4.487 2.6 9.165 2.14 8.277-1.918-3.79-5.517-2.617-7.325-1.855" style="stroke-width:1.5856"/></svg>