<svg xmlns="http://www.w3.org/2000/svg" xml:space="preserve" width="48mm" height="48mm" viewBox="0 0 48 48"><g style="font-family:none;mix-blend-mode:normal;fill:#707577;fill-opacity:1;fill-rule:nonzero;stroke:none;stroke-width:1;stroke-linecap:butt;stroke-linejoin:miter;stroke-miterlimit:10;stroke-dasharray:none;stroke-dashoffset:0"><path d="M21 18c0 .6-.4 1-1 1H4c-.6 0-1-.4-1-1V6c0-.6.4-1 1-1h5.6l2 2H20c.6 0 1 .4 1 1z" opacity=".3" style="fill:#707577;fill-opacity:1" transform="translate(.164 .074)scale(1.99528)"/><path d="M20 20H4c-1.1 0-2-.9-2-2V6c0-1.1.9-2 2-2h6l2 2h8c1.1 0 2 .9 2 2v10c0 1.1-.9 2-2 2M4 6v12h16V8h-8.8l-2-2z" style="fill:#707577;fill-opacity:1" transform="translate(.164 .074)scale(1.99528)"/></g><path fill="#29b6f6" d="M47.538 23.86v18.7c0 .922-.573 1.742-1.436 2.046l-6.398 3.004.58-7.87V26.681l-.58-7.87 6.398 3.003a2.16 2.16 0 0 1 1.436 2.046"/><path fill="#0277bd" d="m22.15 40.39 18.134-13.708v-6.997c0-.87-1.075-1.276-1.65-.624L19 37.01a1.45 1.45 0 0 0 .078 2.2s.96.893 1.307 1.141c.534.381 1.236.424 1.765.037"/><path fill="#0288d1" d="M22.15 26.032 40.284 39.74v6.998c0 .869-1.075 1.275-1.65.624L19 29.41a1.45 1.45 0 0 1 .078-2.2s.96-.894 1.307-1.142c.534-.38 1.236-.424 1.765-.037"/></svg>