<svg xmlns="http://www.w3.org/2000/svg" xml:space="preserve" width="48mm" height="48mm" viewBox="0 0 48 48"><g style="font-family:none;mix-blend-mode:normal;fill:#707577;fill-opacity:1;fill-rule:nonzero;stroke:none;stroke-width:1;stroke-linecap:butt;stroke-linejoin:miter;stroke-miterlimit:10;stroke-dasharray:none;stroke-dashoffset:0"><path d="M21 18c0 .6-.4 1-1 1H4c-.6 0-1-.4-1-1V6c0-.6.4-1 1-1h5.6l2 2H20c.6 0 1 .4 1 1z" opacity=".3" style="fill:#707577;fill-opacity:1" transform="translate(.164 .074)scale(1.99528)"/><path d="M20 20H4c-1.1 0-2-.9-2-2V6c0-1.1.9-2 2-2h6l2 2h8c1.1 0 2 .9 2 2v10c0 1.1-.9 2-2 2M4 6v12h16V8h-8.8l-2-2z" style="fill:#707577;fill-opacity:1" transform="translate(.164 .074)scale(1.99528)"/></g><path fill="#1775f2" d="M17.202 32.678a15.12 15.12 0 1 0 30.238 0 15.12 15.12 0 1 0-30.238 0"/><path fill="#fff" d="m32.507 24.496.558-.97a1.25 1.25 0 0 1 1.712-.463c.6.346.803 1.118.46 1.723l-5.368 9.352h3.882c1.258 0 1.964 1.487 1.418 2.518h-11.38a1.25 1.25 0 0 1-1.251-1.259c0-.698.559-1.26 1.252-1.26h3.19l4.085-7.123-1.276-2.228a1.267 1.267 0 0 1 .46-1.723 1.25 1.25 0 0 1 1.712.463zm-4.828 13.456-1.202 2.098a1.25 1.25 0 0 1-1.712.464 1.264 1.264 0 0 1-.46-1.722l.895-1.556c1.006-.315 1.829-.074 2.479.716m10.36-3.809h3.258c.694 0 1.252.562 1.252 1.26a1.25 1.25 0 0 1-1.252 1.259h-1.81l1.222 2.13c.343.605.14 1.37-.46 1.722a1.25 1.25 0 0 1-1.712-.463c-2.055-3.586-3.6-6.271-4.625-8.062-1.05-1.821-.3-3.648.441-4.266.823 1.42 2.05 3.563 3.687 6.42"/></svg>