<svg xmlns="http://www.w3.org/2000/svg" xml:space="preserve" width="48mm" height="48mm" viewBox="0 0 48 48"><g style="font-family:none;mix-blend-mode:normal;fill:#707577;fill-opacity:1;fill-rule:nonzero;stroke:none;stroke-width:1;stroke-linecap:butt;stroke-linejoin:miter;stroke-miterlimit:10;stroke-dasharray:none;stroke-dashoffset:0"><path d="M4 5c-.6 0-1 .4-1 1v12c0 .6.4 1 1 1h3.783v-6.937H21V8c0-.6-.4-1-1-1h-8.4l-2-2Z" style="opacity:.3" transform="translate(.164 .074)scale(1.99528)"/><path d="M8.145 8.055a4 4 0 0 0-3.99 3.99V35.99a4 4 0 0 0 3.99 3.99h7.548v-3.99H8.145V12.046H18.52l3.99 3.99h17.56v8.108h3.99v-8.107a4.003 4.003 0 0 0-3.99-3.991H24.106l-3.99-3.99Z"/></g><g fill="#e09b2e"><path d="M16.772 25.322h6.67v4.447h-6.67Zm8.894 0h13.34v4.447h-13.34Zm0 13.34h13.34v4.447h-13.34Zm15.564 0h2.223v4.447H41.23Zm-17.788 0-3.335 4.447h-3.335V29.77h4.447v8.893zm15.564-8.893h-6.67l-6.67 8.893h6.67z"/><path d="M32.336 38.662h-6.67l-6.67 8.894m13.34-17.787h6.67l6.67-8.894m2.224 4.447v17.787h-4.447V29.77H41.23l3.335-4.447z"/></g></svg>