<svg xmlns="http://www.w3.org/2000/svg" xml:space="preserve" width="48mm" height="48mm" viewBox="0 0 48 48"><path d="M11.84 5.65h24.247a6.226 6.226 45 0 1 6.226 6.226v24.247a6.01 6.01 135 0 1-6.011 6.012h-24.57a5.904 5.904 45 0 1-5.904-5.904V11.66a6.01 6.01 135 0 1 6.012-6.01" style="fill:none;stroke:#757979;stroke-width:3;stroke-linecap:round;stroke-linejoin:round;stroke-dasharray:none;stroke-opacity:1" transform="translate(-.085 .245)"/><path d="M42.313 15.973v-4.097a6.226 6.226 0 0 0-6.226-6.226H11.84a6.01 6.01 0 0 0-6.011 6.01v4.313z" style="fill:#818585;fill-opacity:.29670301;stroke:#757979;stroke-width:3;stroke-linecap:round;stroke-linejoin:round;stroke-dasharray:none;stroke-opacity:1" transform="translate(-.085 .245)"/><path fill="#dbdbdb" d="m21.504 28.69-6.657 6.656a.82.82 0 0 1-1.163 0l-.776-.776a.82.82 0 0 1-.002-1.161l5.276-5.3-5.276-5.301a.82.82 0 0 1 .002-1.162l.776-.776a.82.82 0 0 1 1.163 0l6.657 6.657a.82.82 0 0 1 0 1.162m13.085 6.269v-1.096a.82.82 0 0 0-.822-.822H23.354a.82.82 0 0 0-.822.822v1.096c0 .454.368.822.822.822h10.413a.82.82 0 0 0 .822-.822" style="fill:#757979;fill-opacity:1;stroke-width:.0171266" transform="translate(-.085 .245)"/><path fill="#74b8c4" d="M46.848 25.348c-1.113-2.023-3.135-2.697-4.55-2.697-1.787-.068-3.203.944-2.9 1.618.068.101.405.843.607 1.112.27.405.843.101 1.011 0 .573-.27 1.113-.404 1.787-.27.674.068 1.45.439 2.022 1.517 1.281 2.529-2.798 7.854-7.955 4.147-5.157-3.708-10.146-2.427-12.37-1.753-2.26.741-3.304 1.45-2.428 3.202 1.247 2.292.843 1.618 2.023 3.54 1.921 3.033 6-1.416 6-1.416-3.101 4.483-5.663 3.438-6.675 1.854-.91-1.416-1.617-3.068-1.617-3.068-7.686 2.73-5.63 14.73-5.63 14.73h3.877c1.01-4.415 4.483-4.247 5.09 0h2.899c2.629-8.629 9.202 0 9.202 0h3.809c-1.079-5.932 2.123-7.786 4.146-11.224 1.854-3.337 3.775-7.618 1.652-11.292m-9.877 11.36c-2.022-.675-1.28-2.697-1.28-2.697s1.786.606 4.145 1.348c-.168.674-1.415 1.854-2.865 1.348" style="stroke-width:.0329181"/></svg>