<svg xmlns="http://www.w3.org/2000/svg" xml:space="preserve" width="48mm" height="48mm" viewBox="0 0 48 48"><path d="M11.84 5.65h24.247a6.226 6.226 45 0 1 6.226 6.226v24.247a6.01 6.01 135 0 1-6.011 6.012h-24.57a5.904 5.904 45 0 1-5.904-5.904V11.66a6.01 6.01 135 0 1 6.012-6.01" style="fill:none;stroke:#9fa2a2;stroke-width:3;stroke-linecap:round;stroke-linejoin:round;stroke-dasharray:none;stroke-opacity:1"/><path d="M42.313 15.973v-4.097a6.226 6.226 0 0 0-6.226-6.226H11.84a6.01 6.01 0 0 0-6.011 6.01v4.313z" style="fill:#9fa2a2;stroke:#9fa2a2;stroke-width:3;stroke-linecap:round;stroke-linejoin:round;fill-opacity:.29670331;stroke-opacity:1;stroke-dasharray:none"/><path fill="#dbdbdb" d="m21.504 28.69-6.657 6.656a.82.82 0 0 1-1.163 0l-.776-.776a.82.82 0 0 1-.002-1.161l5.276-5.3-5.276-5.301a.82.82 0 0 1 .002-1.162l.776-.776a.82.82 0 0 1 1.163 0l6.657 6.657a.82.82 0 0 1 0 1.162m13.085 6.269v-1.096a.82.82 0 0 0-.822-.822H23.354a.82.82 0 0 0-.822.822v1.096c0 .454.368.822.822.822h10.413a.82.82 0 0 0 .822-.822" style="fill:#9fa2a2;fill-opacity:1;stroke-width:.0171266"/></svg>